<?xml version="1.0" encoding="utf-8"?>
<!-- Generator: Adobe Illustrator 21.1.0, SVG Export Plug-In . SVG Version: 6.00 Build 0)  -->
<svg version="1.1" id="Layer_1" xmlns="http://www.w3.org/2000/svg" xmlns:xlink="http://www.w3.org/1999/xlink" x="0px" y="0px"
	 viewBox="0 0 240.7 238.1" style="enable-background:new 0 0 240.7 238.1;" xml:space="preserve">
<style type="text/css">
	.st0{fill:#0981CD;}
	.st1{fill:#FFFFFF;}
	.st2{fill:#FDFDFD;}
	.st3{fill:#0E84CE;}
	.st4{fill:#0D83CE;}
	.st5{fill:#229BD7;}
	.st6{fill:#1E96D5;}
	.st7{fill:#C73737;}
	.st8{fill:#FEFEFE;}
	.st9{fill:#C53636;}
</style>
<path class="st1" d="M86.8,5l-0.3,0.2l-0.3,0c-0.5,0.3-1.1,0.2-1.5,0.5l-0.3,0.2l-0.3,0c-0.6,0.6-1.7-0.1-2.2,0.7l0,0
	c-0.4,0.3-1,0.2-1.5,0.6l-0.2,0.2l-0.3,0c-0.5,0.3-1.1,0.4-1.6-0.1c-0.1-1.5,0.5-2.7,2.1-2.4c1.6,0.3,2.3-0.5,3.4-1.2
	c2.2-1.6,3.2-1.3,4.7,0.9c0,0-0.1,0-0.1,0C87.9,4.7,87.3,4.6,86.8,5z"/>
<path class="st1" d="M73.3,10l-0.2,0.2l-0.3,0c-0.5,0.3-1.3,0.1-1.6,0.7l0,0c-0.3,0.2-0.6,0.2-0.8-0.1C71.7,7.2,72,7,74.7,8.6
	C74.9,8.8,75,8.9,75,9.1c-0.1,0.2-0.2,0.2-0.2,0.2l0,0C74.3,9.7,73.7,9.6,73.3,10z"/>
<path class="st1" d="M153.7,4.4l-0.3,0l-0.3-0.2c-0.4-0.4-1-0.3-1.5-0.5c0,0-0.1,0-0.1,0c0.3-1.4,1.3-1.7,2.5-1.5
	c1.3,0.2,1.2,1.2,1.2,2.1C154.7,4.8,154.2,4.7,153.7,4.4z"/>
<path class="st2" d="M148,2.9c0.7,0,1.5,0,2.2,0c0.2,0.2,0.5,0.5,0.7,0.7C149.9,3.7,148.9,3.6,148,2.9z"/>
<path class="st2" d="M144.5,2.2c-1.1,0.1-2.2,0.1-3.1-0.6C142.5,1.6,143.7,1.1,144.5,2.2z"/>
<path class="st2" d="M99.6,1.4c0.5,0,1.1,0.1,1.6,0.1c-0.9,0.7-2,0.7-3,0.6C98.5,1.6,99.1,1.5,99.6,1.4z"/>
<path class="st2" d="M97.6,2.2c-0.9,0.7-1.9,0.7-2.9,0.6C95.5,1.9,96.6,2.3,97.6,2.2z"/>
<path class="st2" d="M78.2,7.9c-0.6,0.6-1.3,0.8-2.1,0.8C76.6,7.8,77.4,7.9,78.2,7.9z"/>
<path class="st2" d="M94.1,3c-0.7,0.6-1.5,0.7-2.3,0.6C92.4,2.7,93.3,2.9,94.1,3z"/>
<path class="st2" d="M91.3,3.7c-0.7,0.6-1.5,0.7-2.3,0.6C89.5,3.5,90.4,3.6,91.3,3.7z"/>
<path class="st2" d="M153.7,4.4c0.5,0,1,0,1.5-0.1c0.2,0.2,0.5,0.5,0.7,0.7C155.1,5.1,154.3,5,153.7,4.4z"/>
<path class="st2" d="M164.5,8c-0.8,0-1.5-0.1-2.1-0.8C163.1,7.2,164,7,164.5,8z"/>
<path class="st2" d="M146,2.1c0.5,0.1,1.1,0.2,1.4,0.7c-0.8,0.1-1.6,0-2.3-0.6C145.4,2.2,145.7,2.2,146,2.1z"/>
<path class="st2" d="M78.3,7.2c0.5,0,1.1,0,1.6,0.1c-0.4,0.6-1,0.7-1.6,0.6C78.3,7.7,78.3,7.4,78.3,7.2z"/>
<path class="st2" d="M162.3,7.2c-0.7,0-1.2-0.1-1.7-0.6C161.3,6.5,161.9,6.5,162.3,7.2z"/>
<path class="st2" d="M74.7,9.3c0-0.2,0-0.5,0-0.7c0.5,0,1,0,1.5,0.1C75.9,9.3,75.3,9.3,74.7,9.3z"/>
<path class="st2" d="M168,9.4c-0.7,0-1.3-0.1-1.7-0.7C167,8.6,167.7,8.7,168,9.4z"/>
<path class="st2" d="M165.9,8.6c-0.6,0-1.1-0.1-1.5-0.6C165,7.9,165.6,8,165.9,8.6z"/>
<path class="st2" d="M158.1,5.7c-0.7,0.1-1.3,0-1.7-0.6C157,5.1,157.6,5.1,158.1,5.7z"/>
<path class="st2" d="M160.2,6.4c-0.6,0.1-1.2-0.1-1.7-0.6C159.2,5.8,159.8,5.8,160.2,6.4z"/>
<path class="st2" d="M68.3,12.2c-0.3,0.6-0.9,0.7-1.4,0.7C67.2,12.3,67.7,12.2,68.3,12.2z"/>
<path class="st2" d="M70.4,10.7c0.3,0,0.5,0.1,0.8,0.1c-0.3,0.6-0.9,0.7-1.5,0.7C70,11.3,70.2,11,70.4,10.7z"/>
<path class="st2" d="M69.8,11.5c-0.3,0.6-0.9,0.7-1.5,0.7C68.6,11.6,69.1,11.5,69.8,11.5z"/>
<path class="st2" d="M170.9,10c0,0.2,0,0.5,0,0.7c-0.6,0-1.1-0.1-1.4-0.7C169.9,10.1,170.4,10,170.9,10z"/>
<path class="st2" d="M169.5,10.1c-0.6,0-1.1-0.1-1.5-0.7C168.6,9.3,169.1,9.4,169.5,10.1z"/>
<path class="st2" d="M81.9,6.5c0.5-0.9,1.4-0.8,2.2-0.7C83.5,6.4,82.7,6.6,81.9,6.5z"/>
<path class="st2" d="M80.4,7.1c0.3-0.5,0.9-0.6,1.5-0.6C81.5,7,81,7.2,80.4,7.1z"/>
<path class="st2" d="M151.5,3.7c0.6-0.1,1.1,0,1.5,0.5C152.5,4.3,151.9,4.3,151.5,3.7z"/>
<path class="st2" d="M84.7,5.7c0.4-0.5,0.9-0.6,1.5-0.5C85.8,5.6,85.3,5.7,84.7,5.7z"/>
<path class="st2" d="M86.8,5c0.4-0.6,0.9-0.6,1.5-0.5C88,5,87.4,5,86.8,5z"/>
<path class="st2" d="M170.9,10.7c0.6,0,1.1,0.1,1.4,0.7C171.7,11.5,171.3,11.2,170.9,10.7z"/>
<path class="st2" d="M73.3,10c0.3-0.5,0.8-0.6,1.4-0.6C74.3,9.8,73.9,10,73.3,10z"/>
<path class="st2" d="M71.2,10.9c0.3-0.8,1-0.8,1.6-0.7C72.4,10.7,71.8,10.8,71.2,10.9z"/>
<path class="st2" d="M172.7,11.6c0.4,0,0.8,0.2,1,0.6C173.3,12.1,172.9,12,172.7,11.6z"/>
<path class="st2" d="M174.2,12.3c0.4,0,0.8,0.2,1,0.5C174.7,12.8,174.4,12.7,174.2,12.3z"/>
<path class="st7" d="M110.9,2.2c0.3,0,0.7,0,1,0c0.7-0.2,1.4,0.1,2.1-0.1c0.9,0,1.8,0,2.7,0c0.2-0.2,0.4-0.3,0.6-0.2
	c0.9,0.3,1.9,0.1,2.8,0.2c1.1,0,2.2,0,3.3,0c0.5,0.1,1.1,0.1,1.6,0c0.4-0.1,0.7-0.1,1,0.2c0.1,0,0.3,0,0.4,0
	c0.6,0.2,1.2-0.4,1.8,0.1c0.1,0,0.3,0,0.4,0c0.6,0.2,1.2-0.4,1.8,0.1c0.1,0,0.2,0,0.3,0c0.5,0.1,1-0.3,1.4,0.2
	c1.4,0.2,2.7,0.4,4.1,0.5c0.6-0.2,1,0.1,1.5,0.3c1.1,0.3,2.1,0.5,3.2,0.6c0.6-0.2,1,0.1,1.5,0.3c0.3,0.1,0.5,0.3,0.9,0.2
	c0.5-0.2,0.9,0.1,1.4,0.3c0.3,0.1,0.5,0.3,0.9,0.2c0.5-0.2,0.9,0.1,1.4,0.3c1.9,0.5,3.7,1,5.6,1.5c0.5-0.1,0.9,0,1.2,0.3
	c1.1,0.4,2.3,0.8,3.4,1.2c0.8-0.1,1.6,0.2,2.2,0.7c0.3,0.1,0.7,0.3,1,0.4c0.9-0.1,1.6,0.4,2.4,0.9c1.4,0.6,2.7,1.2,4.1,1.8
	c0.5,0,0.9,0.2,1.2,0.6c0.2,0.1,0.4,0.2,0.7,0.2c0.5,0,0.9,0.2,1.2,0.6c0.2,0.1,0.3,0.2,0.5,0.2c0.7,0.1,1.4,0.4,1.9,1
	c1.2,0.7,2.5,1.3,3.7,2c1.2,0.5,2.5,1,3.4,2c1.1,0.7,2.3,1.4,3.4,2.2c0.6,0,1,0.4,1.4,0.9c0,0,0.1,0.1,0.1,0.1
	c0.9,0.3,1.6,0.9,2.2,1.6c1,0.7,1.9,1.4,2.9,2.1c0.5,0,0.7,0.3,0.8,0.7c0.5,0.4,1,0.8,1.5,1.2c0.5,0,0.7,0.3,0.8,0.7
	c0.7,0.6,1.5,1.2,2.2,1.9c0.5,0,0.7,0.3,0.8,0.7c0.5,0.6,1.2,1,1.7,1.5c0.6,0.1,1,0.5,1.2,1c0.8,0.8,1.6,1.6,2.4,2.4
	c0.9,0.1,1.2,0.8,1.5,1.5c0.8,0.8,1.6,1.6,2.4,2.4c0.6,0.1,0.8,0.7,1,1.2c0.1,0.1,0.2,0.2,0.3,0.3c0.6,0.2,0.8,0.7,1,1.2
	c0.4,0.5,0.7,1,1.2,1.4c0.6,0.2,0.8,0.7,1,1.2c0.3,0.6,0.8,1,1.2,1.5c0.8,0.4,1.1,1.2,1.5,1.9c0.7,1,1.4,1.9,2.1,2.9
	c0.4,0.2,0.6,0.5,0.6,0.9c0.5,0.3,0.7,0.7,0.9,1.2c0.4,0.7,0.8,1.3,1.2,2c0.5,0.3,0.7,0.7,0.8,1.2c0.2,0.3,0.5,0.7,0.7,1
	c0.9,0.8,1.4,1.9,1.8,3.1c0.5,1,1,1.9,1.6,2.7c0.5,0.4,0.7,0.9,0.7,1.5c0.8,1.5,1.5,3,2.3,4.5c0.4,0.3,0.6,0.7,0.5,1.2
	c0.1,0.2,0.2,0.4,0.2,0.7c0.4,0.3,0.6,0.7,0.6,1.2c0.7,1.8,1.5,3.6,2.2,5.4c0.4,0.3,0.6,0.7,0.4,1.2c0.1,0.2,0.2,0.5,0.3,0.7
	c0.5,0.7,0.8,1.4,0.7,2.2c0.5,1.6,1,3.3,1.5,4.9c0.1,0,0.2,0.1,0.2,0.2c0.6,1.5,1,3,1.1,4.6c-0.1,0.4,0.2,0.7,0.2,1
	c0.3,0.3,0.4,0.7,0.3,1.2c-0.1,0.4,0.2,0.7,0.2,1c0.3,0.3,0.4,0.7,0.3,1.2c-0.1,0.5,0.2,1,0.2,1.5c0.4,0.3,0.4,0.7,0.3,1.2
	c0,0.9,0.3,1.8,0.4,2.7c0.4,0.4,0.4,0.8,0.1,1.2c0,0.1,0.1,0.1,0.1,0.2c0.4,0.4,0.3,0.8,0.1,1.2c0.2,1.1,0.3,2.3,0.5,3.4
	c0.1,0.3,0,0.7,0.1,1.1c0,0.1,0,0.3,0,0.4c0.2,0.2,0.2,0.4,0.2,0.7c0,0.4-0.3,0.7-0.1,1.1c0,0.4,0,0.8,0,1.1
	c0.1,0.4-0.1,0.8,0.1,1.2c0,0.7,0,1.3,0,2c0.2,1.1-0.1,2.3,0.1,3.5c0,0.8,0,1.5,0,2.3c-0.1,1.1-0.2,2.2,0.1,3.2c0,0.3,0,0.5-0.2,0.7
	c0,0.5,0,1,0,1.5c-0.2,0.4,0.1,0.7,0.1,1.1c0,0.2,0,0.5-0.2,0.7c0,0.2,0,0.3,0,0.5c-0.2,0.4,0,0.8-0.1,1.2c0,0.3,0,0.7,0,1
	c-0.2,0.4,0.1,0.7,0.1,1.1c0,0.2,0,0.5-0.3,0.6c-0.3,2-0.5,4-0.8,5.9c-0.8,4.9-1.9,9.7-3.3,14.5c-2.3,7.8-5.4,15.3-9.2,22.5
	c-3.3,6.1-7,11.8-11.3,17.2c-3.3,4.2-6.9,8.2-10.7,11.9c-5.4,5.2-11.3,9.8-17.5,13.9c-3.7,2.4-7.5,4.5-11.4,6.5
	c-9.2,4.7-18.9,7.9-28.9,10c-6.7,1.4-13.5,2.1-20.3,2.3c-12,0.3-23.8-1.2-35.5-4.4c-3.5-1-6.9-2.2-10.3-3.4
	c-4.4-1.6-8.6-3.6-12.8-5.8c-4.8-2.5-9.4-5.4-13.8-8.6c-2.2-1.6-4.3-3.2-6.3-5c-2.5-2.2-5.1-4.3-7.4-6.7c-2.2-2.3-4.4-4.6-6.5-7
	c-3.1-3.5-5.9-7.3-8.6-11.2c-1.8-2.6-3.4-5.2-4.9-8c-1.1-2-2.3-4-3.2-6c-1.5-3.2-2.9-6.5-4.2-9.9c-1.7-4.6-3.2-9.3-4.3-14
	c-0.6-2.6-1.1-5.3-1.6-8c-0.4-2.2-0.5-4.5-1-6.7c-0.1-0.5,0-1-0.1-1.5c-0.1-0.4,0-0.8-0.1-1.2c0-0.3,0-0.6,0-1
	c-0.1-0.4,0-0.8-0.1-1.2c0-0.4,0-0.8,0-1.1c-0.1-0.6,0.1-1.3-0.1-1.9c0-1.1,0-2.2,0-3.3c-0.1-0.9-0.1-1.8,0-2.7c0-1.1,0-2.2,0-3.3
	c0.2-0.7,0-1.4,0.1-2.1c0-0.3,0-0.7,0-1c0.2-0.4,0-0.8,0.1-1.2c0-0.4,0-0.8,0-1.1c0.2-0.3,0-0.7,0.1-1.1c0.2-2.3,0.3-4.5,0.8-6.8
	c0.5-2.6,0.9-5.2,1.5-7.8c0.7-3,1.4-6,2.4-8.9c1-3,2-6,3.2-9c1.5-3.9,3.3-7.7,5.2-11.4c1.6-3.2,3.5-6.2,5.5-9.3
	c2.5-3.8,5.1-7.4,8-10.8c1.6-2,3.3-3.9,5.1-5.7c1.3-1.3,2.5-2.6,3.8-3.9c2.6-2.4,5.2-4.8,7.9-7c5.1-4,10.4-7.7,16.1-10.9
	c6.8-3.8,13.9-6.9,21.3-9.3c0.2-0.1,0.4-0.2,0.6-0.2c0.7-0.7,1.5-0.6,2.4-0.8c0.1,0,0.3,0,0.4-0.1c3.3-0.9,6.6-1.7,10-2.4
	c0.5-0.2,1-0.5,1.5-0.3c2.1-0.3,4.2-0.6,6.4-0.9c1.3-0.2,2.6-0.3,3.9-0.5c0.4-0.1,0.8,0.1,1.2-0.1c0.3,0,0.7,0,1,0
	C110.1,2.1,110.5,2.3,110.9,2.2z"/>
<path class="st8" d="M220.4,60.5c-0.6-1-1.2-2-1.8-3.1c0.4-0.4,0.8-0.1,0.9,0.2c0.2,0.5,0.7,0.9,0.6,1.5c-0.1,0.4,0.3,0.3,0.4,0.4
	C220.8,60,221.1,60.3,220.4,60.5z"/>
<path class="st8" d="M212.3,48.3c-0.6-0.5-1.1-1.2-1.5-1.9c0.1-0.4,0.3-0.5,0.6-0.2C211.9,46.8,212.6,47.3,212.3,48.3z"/>
<path class="st8" d="M222.7,64.8c-0.3-0.5-0.6-0.9-0.7-1.5c0.6-0.2,1,0,1,0.7C223.1,64.3,223,64.5,222.7,64.8z"/>
<path class="st8" d="M217.9,56.5c-0.3-0.4-0.5-0.8-0.8-1.2c0.3-0.1,0.6-0.3,0.8,0C218.3,55.6,218.1,56,217.9,56.5z"/>
<path class="st8" d="M226.4,72.3c-0.2-0.4-0.4-0.8-0.6-1.2c0.3,0,0.8-0.1,0.9,0.3C226.9,71.7,226.8,72.1,226.4,72.3z"/>
<path class="st8" d="M225.5,70.4c-0.3-0.4-0.4-0.8-0.5-1.2c0.4,0,0.7-0.1,0.9,0.4C226,70,225.9,70.3,225.5,70.4z"/>
<path class="st8" d="M215.9,53.3c-0.4-0.3-0.7-0.7-0.9-1.2C216,52,216.2,52.3,215.9,53.3z"/>
<path class="st8" d="M215,52c-0.3-0.2-0.5-0.5-0.6-0.9c0-0.2,0.1-0.4,0.4-0.3c0.2,0.1,0.4,0.2,0.5,0.5C215.3,51.6,215.1,51.8,215,52
	z"/>
<g>
	
		<image style="overflow:visible;opacity:0.75;" width="89" height="144" xlink:href="8D09E17F23F729F0.png"  transform="matrix(1 0 0 1 28.9058 57.5301)">
	</image>
	<g>
		<path class="st8" d="M76.2,121.6c3.4,2.4,6.8,4.8,10.2,7.1c5,3.5,10,6.9,15,10.4c0.5,0.3,0.7,0.7,0.7,1.3c0,2.1,0,4.1,0,6.2
			c0.2,0.4,0.2,0.8,0.2,1.2c0,8.3,0,16.6,0,24.9c0,0.1,0,0.2,0,0.3c0,0.3,0.1,0.7-0.2,0.9c-0.3,0.2-0.6-0.1-0.9-0.3
			c-3.4-2.6-6.9-5.2-10.3-7.8c-3.7-2.8-7.5-5.7-11.2-8.5c-11.1-8.5-22.2-16.9-33.4-25.4c-0.3-0.2-0.6-0.5-0.8-0.9
			c-1.4-0.7-1.4-1.9-1.4-3.3c0.1-7.4,0-14.7,0-22.1c0-0.5,0.1-0.8,0.5-1.1c18.9-14.3,37.8-28.6,56.7-42.9c0.2-0.1,0.4-0.3,0.8-0.5
			c0,3,0,5.9,0,8.8c0.3,0.3,0.2,0.8,0.2,1.1c0,7.8,0,15.6,0,23.4c0,0.9-0.3,1.5-1.1,2c-10,6.7-20,13.4-30.1,20.1
			c-1.2,0.8-1.2,0.8,0,1.6c1.5,1,3,2.1,4.5,3.1C75.8,121.2,76.1,121.3,76.2,121.6z"/>
	</g>
</g>
<g>
	
		<image style="overflow:visible;opacity:0.75;" width="90" height="144" xlink:href="8D09E17F23F729F1.png"  transform="matrix(1 0 0 1 116.9058 57.5301)">
	</image>
	<g>
		<path class="st8" d="M134.2,96.2c-1.3-0.6-1.4-1.7-1.4-3c0-10.3,0-20.7,0-31c0-0.3,0-0.6,0-0.9c0.3,0,0.5,0.2,0.7,0.3
			c18.9,14.3,37.8,28.6,56.8,42.9c0.5,0.3,0.6,0.7,0.6,1.3c0,2,0,4.1,0,6.1c0.2,0.3,0.2,0.7,0.2,1.1c0,5.5,0,11,0,16.4
			c0,0.6-0.4,0.8-0.8,1.1c-4.3,3.3-8.6,6.6-12.9,9.8c-9.1,6.9-18.2,13.8-27.3,20.8c-5.1,3.9-10.1,7.7-15.2,11.6
			c-0.2,0.1-0.4,0.4-0.7,0.3c-0.4,0.3-0.8,0.6-1.3,0.9c-0.2-0.2-0.1-0.5-0.1-0.7c0-10.9,0-21.8,0-32.7c0-0.6,0.2-0.9,0.7-1.2
			c8.6-5.9,17.3-11.9,25.9-17.8c0.3-0.2,0.6-0.4,0.9-0.7c0.1-0.4,0.4-0.5,0.7-0.7c1.1-0.7,2.2-1.5,3.3-2.3c0.6-0.4,0.6-0.5,0-0.9
			c-3.5-2.5-7.1-4.9-10.7-7.3c-6.2-4.2-12.4-8.5-18.7-12.7C134.6,96.7,134.4,96.5,134.2,96.2z"/>
	</g>
</g>
<path class="st9" d="M103.4,103.4c0-11.2,0-22.3,0-33.5c0-0.3,0.1-0.6-0.2-0.9c0.1-0.1,0.3-0.1,0.3,0.1c0,0.2,0,0.5,0,0.8
	c0,10.9,0,21.7,0,32.6C103.6,102.8,103.7,103.1,103.4,103.4z"/>
<path class="st9" d="M103.4,181.8c0-11.5,0-22.9,0-34.4c0.3,0.2,0.2,0.6,0.2,0.9c0,10.9,0,21.7,0,32.6
	C103.6,181.3,103.7,181.6,103.4,181.8z"/>
<path class="st9" d="M192.2,137.9c0-8.3,0-16.7,0-25c0.3,0.3,0.2,0.6,0.2,0.9c0,7.8,0,15.5,0,23.3
	C192.4,137.4,192.5,137.7,192.2,137.9z"/>
<path class="st9" d="M191.2,112.1c-0.3,0.3-0.2,0.6-0.2,1c0,5.2,0,10.5,0,15.7c0,0.3,0.1,0.7-0.1,1c0-6,0-11.9,0-17.9
	C191.1,111.9,191.2,112,191.2,112.1z"/>
</svg>
