<?xml version="1.0" encoding="utf-8"?>
<!-- Generator: Adobe Illustrator 21.1.0, SVG Export Plug-In . SVG Version: 6.00 Build 0)  -->
<svg version="1.1" id="Layer_1" xmlns="http://www.w3.org/2000/svg" xmlns:xlink="http://www.w3.org/1999/xlink" x="0px" y="0px"
	 viewBox="0 0 240.7 238.1" style="enable-background:new 0 0 240.7 238.1;" xml:space="preserve">
<style type="text/css">
	.st0{fill:#FFFFFF;}
	.st1{fill:#FDFDFD;}
	.st2{fill:#0981CD;}
	.st3{fill:none;}
	.st4{fill:#FEFEFE;}
</style>
<path class="st0" d="M31.2,40c-0.4-2.6,0.6-4.5,3-5.8c0.9-0.4,1.5-1.1,2-2c1.2-2.4,3.1-3.3,5.8-3c0.2,0.2,0.2,0.3,0.2,0.5
	C42,29.9,42,30,42,30l0,0c-0.3,0.1-0.5,0.4-0.8,0.7l0,0c-0.3,0.2-0.5,0.4-0.7,0.7l0,0c-0.2,0.2-0.5,0.5-0.7,0.7l0,0
	c-1.9,1.4-3.5,3.1-5,4.9l-0.1,0.1c-0.2,0.3-0.4,0.5-0.6,0.7l0,0c-0.2,0.2-0.4,0.5-0.7,0.7l0,0c-0.2,0.2-0.5,0.5-0.7,0.7l0,0
	c-0.3,0.2-0.6,0.4-0.7,0.8l0,0C31.7,40.2,31.5,40.2,31.2,40z"/>
<path class="st0" d="M187.7,20.1c-0.2,0.1-0.3,0-0.4-0.2c-0.2-0.2-0.5-0.4-0.8-0.6l0,0c-0.3-0.5-1-0.3-1.3-0.8h-0.1
	c-0.3-0.2-0.5-0.5-0.8-0.6h0.1c-0.3-0.6-1-0.4-1.4-0.8l0,0c-0.3-0.3-0.6-0.6-1-0.6c-0.2,0.1-0.3,0-0.4-0.2c-0.2-0.2-0.5-0.4-0.8-0.5
	l0,0c-0.2-0.3-0.6-0.4-0.7-0.8c0.6-0.8,1.4-0.8,2.2-0.5c3,1.2,5.7,3.1,8.4,4.8c1.1,0.7,0.7,1.8,0.8,2.8c-0.2,0.2-0.5,0.2-0.8,0.1
	v0.1c-0.2-0.6-1-0.4-1.3-0.9h-0.1c-0.3-0.2-0.5-0.5-0.8-0.6l0,0C188.4,20.4,188.1,20.1,187.7,20.1z"/>
<path class="st0" d="M172.7,11.6h-0.2l-0.2-0.2c-0.4-0.4-1-0.2-1.4-0.7l0,0c-0.2-0.2-0.3-0.3-0.2-0.5s0.2-0.2,0.2-0.2
	c4.2-1.6,7.5,0.2,7.8,4.2c-0.2,0.3-0.4,0.3-0.7,0l0,0c-0.4-0.4-1-0.3-1.4-0.7h-0.1c-0.3-0.3-0.6-0.5-1-0.6h-0.2l-0.2-0.2
	c-0.3-0.3-0.6-0.5-1-0.5h-0.2l-0.2-0.2C173.4,11.8,173.1,11.6,172.7,11.6z"/>
<path class="st0" d="M86.8,5l-0.3,0.2h-0.3c-0.5,0.3-1.1,0.2-1.5,0.5l-0.3,0.2h-0.3c-0.6,0.6-1.7-0.1-2.2,0.7l0,0
	c-0.4,0.3-1,0.2-1.5,0.6l-0.2,0.2h-0.3c-0.5,0.3-1.1,0.4-1.6-0.1c-0.1-1.5,0.5-2.7,2.1-2.4c1.6,0.3,2.3-0.5,3.4-1.2
	C86,2.1,87,2.4,88.5,4.6h-0.1C87.9,4.7,87.3,4.6,86.8,5z"/>
<path class="st0" d="M7.8,82.2c0.1,0.2,0,0.4-0.1,0.5c-0.4,0.4-0.3,1-0.5,1.5l0,0C7,84.1,6.7,84.1,6.5,84c-2.1-1.8-0.1-3.7,0-5.6
	c0.1-1.4,1-2.4,2.7-2.2c0.5,0.5,0.3,1.1,0.1,1.7c0.1,0.2,0.1,0.4-0.1,0.5c-0.4,0.5-0.3,1.1-0.6,1.6c0.1,0.2,0,0.4-0.1,0.5
	C8,81.1,8.1,81.7,7.8,82.2z"/>
<path class="st0" d="M43.3,27.9c-0.1-1.5,0-2.9,1.8-3.3c1-0.2,1.5-0.8,2-1.7c0.7-1.3,2-1.5,3.3-0.6c0.2,0.2,0.3,0.3,0.3,0.5
	s-0.1,0.3-0.1,0.3V23c-0.4,0.1-0.6,0.4-0.8,0.7l0,0c-0.3,0.2-0.5,0.4-0.8,0.6l0,0c-0.3,0.4-1.1,0.3-1.3,0.9l0.1-0.1
	c-0.4,0.1-0.7,0.3-0.8,0.7l0,0c-0.4,0.1-0.6,0.4-0.8,0.7l0,0c-0.2,0.2-0.5,0.4-0.7,0.6h-0.1c-0.3,0.5-1.1,0.2-1.2,1h0.1
	C43.9,28.1,43.6,28,43.3,27.9z"/>
<path class="st0" d="M24.1,48.5c-0.1-0.3-0.3-0.6-0.4-1c-0.3-0.9,0.2-2,0.8-2.1c2.4-0.6,1.8-5.1,5.4-4c0.4,0.9-0.4,1.4-0.7,2.1l0,0
	c-0.2,0.3-0.4,0.5-0.6,0.8l0,0c-0.3,0.2-0.6,0.5-0.7,0.8L28,45c-0.4,0.2-0.7,0.4-0.7,0.8l0.1-0.1c-0.7,0.2-0.5,1-0.9,1.3l0,0
	c-0.2,0.3-0.5,0.5-0.6,0.8l0,0c-0.3,0.2-0.6,0.4-0.7,0.9h0.1C24.6,48.9,24.4,48.8,24.1,48.5z"/>
<path class="st0" d="M214.4,43.5c2.8-0.7,3.2,2,4.7,3.3c1,0.8,1.1,2,0.3,3.1c-0.3,0.3-0.5,0.4-0.9,0.1h0.1c0-0.4-0.3-0.7-0.7-0.9
	l0,0c-0.1-0.3-0.4-0.5-0.6-0.8l0,0c-0.5-0.3-0.3-1.1-0.9-1.3l0.1,0.1c-0.1-0.4-0.4-0.6-0.7-0.8l0,0c-0.2-0.3-0.4-0.5-0.6-0.8l0,0
	C214.7,45,214,44.5,214.4,43.5z"/>
<path class="st0" d="M232.2,75.6c-0.2-0.1-0.2-0.3-0.1-0.5c-0.3-0.5-0.1-1.2-0.7-1.7l0,0c-0.3-0.4-0.2-1.1-0.6-1.5l0,0
	c-0.7-0.5,0-1.6-0.9-2.1v0.1c-0.2-0.3-0.1-0.6,0.1-0.8c3.2,1.2,4.8,4.6,3.5,7.8c-0.2,0.3-0.5,0.3-0.8,0l0,0
	C232.5,76.6,232.6,76,232.2,75.6z"/>
<path class="st1" d="M240.1,128.3c0-6.2,0-12.3,0-18.5c1.1,0,1.1,0.6,0.7,1.4c0,4.6,0,9.2,0,13.8
	C240.7,126.1,241.1,127.4,240.1,128.3z"/>
<path class="st0" d="M51.9,21.4c-0.5-2.2,1.1-3.2,2.6-4.1c1.2-0.8,2.2-0.6,3.1,0.5c-0.1,0.4-0.5,0.5-0.7,0.8l0,0
	c-0.3,0.1-0.5,0.4-0.8,0.6H56c-0.3,0.5-1,0.3-1.3,0.8l0,0c-0.3,0.1-0.5,0.4-0.8,0.6h-0.1c-0.3,0.5-1,0.3-1.3,0.8l0,0
	C52.4,21.7,52.1,21.7,51.9,21.4z"/>
<path class="st0" d="M238.6,98.4c-0.2-0.2-0.2-0.4-0.1-0.6c-0.7-0.9,0-2-0.6-2.9c-0.2-0.2-0.2-0.4-0.1-0.7c-0.4-0.5-0.4-1,0.1-1.5
	c3,0.4,1.9,3.2,2.7,4.8c0.4,0.9,0.3,2.2-1.3,2.4C238.8,99.5,239.1,98.8,238.6,98.4z"/>
<path class="st0" d="M19.8,55.6c-1.1-0.9-1.3-1.9-0.5-3.1c1-1.5,1.9-3.1,4.1-2.6c0.2,0.2,0.2,0.3,0.2,0.5s-0.1,0.3-0.1,0.3h0.1
	c-0.6,0.2-0.4,1-0.9,1.3l0,0c-0.2,0.3-0.5,0.5-0.6,0.8v-0.1c-0.5,0.3-0.4,1-0.8,1.3l0,0c-0.2,0.3-0.5,0.5-0.6,0.8l0.1-0.1
	C20.3,55.1,20.2,55.6,19.8,55.6z"/>
<path class="st0" d="M197.3,26.4c4,0.1,4,0.1,4.3,3.6c-0.9,0.4-1.4-0.3-2-0.7l-0.1-0.1c-0.3-0.2-0.5-0.4-0.7-0.6l0,0
	c-0.2-0.2-0.5-0.4-0.7-0.7l0,0c-0.2-0.3-0.4-0.6-0.8-0.7l0,0c-0.1-0.2-0.1-0.4-0.2-0.6C197,26.6,197.3,26.4,197.3,26.4z"/>
<path class="st0" d="M12.1,70.9c0.1,0.2,0,0.3-0.1,0.4c-0.4,0.4-0.3,1-0.7,1.4l0,0c-0.3,0.3-0.5,0.3-0.7,0c-1.6-2.7-1.4-3,2.1-4.3
	c0.2,0.2,0.3,0.3,0.2,0.5c0,0.2-0.1,0.3-0.1,0.3v-0.1C12.2,69.6,12.3,70.4,12.1,70.9z"/>
<path class="st0" d="M73.3,10l-0.2,0.2h-0.3c-0.5,0.3-1.3,0.1-1.6,0.7l0,0c-0.3,0.2-0.6,0.2-0.8-0.1C71.7,7.2,72,7,74.7,8.6
	C74.9,8.8,75,8.9,75,9.1c-0.1,0.2-0.2,0.2-0.2,0.2l0,0C74.3,9.7,73.7,9.6,73.3,10z"/>
<path class="st0" d="M148,2.9c-0.2,0-0.5-0.1-0.7-0.1c-0.4-0.4-1.1-0.1-1.4-0.7c1.8-2.1,2.9-1.9,4.3,0.8
	C149.5,3.4,148.8,3.4,148,2.9z"/>
<path class="st0" d="M224.3,57.8c0.4,0.2,0.8,0.4,1.2,0.6c2.3,1.1,2.3,1.3,0.9,3.7c-0.4-0.1-0.5-0.5-0.9-0.6l0.1,0.1
	c0-0.4-0.4-0.6-0.6-0.9v-0.1c-0.5-0.3-0.3-1-0.8-1.3l0,0C224,58.7,223.9,58.3,224.3,57.8z"/>
<path class="st0" d="M2.8,105c0,0.4-0.1,0.9-0.1,1.3c-0.4,0.4-0.2,1.1-0.7,1.4c-2.1-1.6-2-2.5,0.6-4.3C3.2,103.9,3.1,104.4,2.8,105z
	"/>
<path class="st0" d="M17.1,61c0.1,0.2,0,0.3-0.2,0.4c-0.2,0.3-0.5,0.5-0.6,0.8l0.1-0.1c-0.4,0.1-0.5,0.6-0.9,0.6
	c-1.6-2.8-1.3-3.2,2.1-3.6c0.2,0.1,0.3,0.3,0.2,0.5c-0.1,0.2-0.1,0.2-0.2,0.2l0,0C17.4,60.2,17.1,60.5,17.1,61z"/>
<path class="st0" d="M210.8,39.3c2.8,0.2,2.8,0.2,2.9,3.6c-0.2,0.2-0.5,0.2-0.8,0l0,0c-0.1-0.3-0.4-0.5-0.7-0.8l0,0
	c-0.2-0.2-0.4-0.5-0.6-0.7v-0.1C211.1,40.7,210.4,40.2,210.8,39.3z"/>
<path class="st0" d="M240.7,111.2c0-0.6-0.1-1.1-0.7-1.4c-0.2-0.7-0.3-1.4-0.1-2.1c0.9,0,2-0.2,2.2,1.2
	C242.2,110,242.3,111.1,240.7,111.2z"/>
<path class="st0" d="M153.7,4.4h-0.3l-0.3-0.2c-0.4-0.4-1-0.3-1.5-0.5h-0.1c0.3-1.4,1.3-1.7,2.5-1.5c1.3,0.2,1.2,1.2,1.2,2.1
	C154.7,4.8,154.2,4.7,153.7,4.4z"/>
<path class="st0" d="M193.7,23.6c3.1,0.2,3.1,0.2,3.6,2.8l0,0c-0.3,0.2-0.5,0.2-0.9,0.1h0.1c-0.2-0.6-0.9-0.4-1.2-0.9l-0.1-0.1
	c-0.3-0.2-0.5-0.4-0.7-0.6l0,0c-0.2-0.3-0.4-0.6-0.8-0.7l0,0C193.5,24.1,193.5,23.8,193.7,23.6z"/>
<path class="st0" d="M63.3,14.9l-0.2,0.2h-0.3c-0.4,0-0.7,0.3-1,0.6l0,0c-0.2,0.3-0.5,0.3-0.7,0c0.5-2.9,1-3.2,3.6-2.1
	c-0.1,0.4-0.5,0.5-0.6,0.9l0,0C63.8,14.5,63.6,14.7,63.3,14.9z"/>
<path class="st0" d="M2.7,131.9c0,0.4,0.1,0.8,0.1,1.3c0.3,0.4,0.2,0.7-0.2,0.9C0.1,133,0,132.5,2,130.5
	C2.5,130.8,2.2,131.5,2.7,131.9z"/>
<path class="st1" d="M117.5,238.1c2.6-0.2,5.2-0.2,7.8,0C122.7,239.2,120.1,239.2,117.5,238.1z"/>
<path class="st1" d="M2.7,131.9C2.1,131.6,2,131,2,130.5c0-1.7,0.1-3.5,0.1-5.2C2.9,127.4,2.7,129.6,2.7,131.9z"/>
<path class="st1" d="M2,107.7c0-0.6,0.1-1.1,0.7-1.4c0,2.2,0.2,4.5-0.6,6.7C2.1,111.2,2,109.4,2,107.7z"/>
<path class="st1" d="M107.5,237.4c2.2,0,4.5-0.2,6.6,0.6C111.9,237.8,109.6,238.7,107.5,237.4z"/>
<path class="st1" d="M128.6,238c2.2-0.8,4.4-0.6,6.7-0.6C133.2,238.8,130.8,237.8,128.6,238z"/>
<path class="st1" d="M113.4,0.1c-1.9,0.7-3.9,0.6-5.9,0.6C109.3-0.6,111.4,0.3,113.4,0.1z"/>
<path class="st1" d="M240,107.7c-0.8-1.6-0.6-3.3-0.6-5.1C240.6,104.2,239.8,106,240,107.7z"/>
<path class="st1" d="M133.1,0c0.6,0,1.1,0.1,1.4,0.7c-1.8,0-3.6,0.2-5.2-0.6C130.6,0.1,131.9,0.1,133.1,0z"/>
<path class="st1" d="M239.3,135.4c0-1.8-0.1-3.5,0.6-5.2C239.8,132,240.6,133.9,239.3,135.4z"/>
<path class="st1" d="M2.8,105c0-0.5-0.1-1.1-0.1-1.6c0.2-1-0.3-2.1,0.8-2.8C3.5,102.1,3.5,103.6,2.8,105z"/>
<path class="st1" d="M135.9,237.3c1.4-0.7,2.9-0.7,4.4-0.6C138.9,237.9,137.3,237.2,135.9,237.3z"/>
<path class="st1" d="M2.6,134c0.1-0.3,0.1-0.6,0.2-0.9c0.7,1.4,0.7,2.9,0.6,4.4C2.2,136.6,3,135.2,2.6,134z"/>
<path class="st1" d="M102.5,236.7c1.3-0.1,2.6-0.1,3.8,0.6C105,237.2,103.6,237.8,102.5,236.7z"/>
<path class="st1" d="M102.5,1.4c0.3-0.5,0.9-0.6,1.4-0.7c0.8,0,1.5,0.1,2.3,0.1C105,1.5,103.8,1.5,102.5,1.4z"/>
<path class="st1" d="M140.2,1.4c-1.2,0-2.5,0.2-3.6-0.6C137.9,0.9,139.2,0.3,140.2,1.4z"/>
<path class="st1" d="M238.6,98.4c0.5,0.3,0.7,0.9,0.7,1.4c0,0.8-0.1,1.5-0.1,2.3C238.6,100.9,238.6,99.7,238.6,98.4z"/>
<path class="st1" d="M238.6,139.7c-0.1-1.3-0.1-2.5,0.6-3.7C239.2,137.3,239.8,138.6,238.6,139.7z"/>
<path class="st1" d="M4.2,96.3c0,1.3,0.1,2.5-0.7,3.7C3.6,98.7,3,97.3,4.2,96.3z"/>
<path class="st1" d="M140.8,236.6c1.1-0.7,2.4-0.7,3.7-0.7C143.5,237.1,142.1,236.5,140.8,236.6z"/>
<path class="st1" d="M3.5,138.2c0.7,1.1,0.7,2.4,0.7,3.7C3,140.8,3.6,139.4,3.5,138.2z"/>
<path class="st1" d="M148,2.9c0.7,0,1.5,0,2.2,0c0.2,0.2,0.5,0.5,0.7,0.7C149.9,3.7,148.9,3.6,148,2.9z"/>
<path class="st1" d="M26.3,191c0.8,0.5,1.3,1.2,1.6,2.1C26.7,192.8,26.3,192.1,26.3,191z"/>
<path class="st1" d="M213.5,194.5c0.3-0.9,0.8-1.6,1.6-2C215,193.5,214.6,194.3,213.5,194.5z"/>
<path class="st1" d="M29.1,194.6c0.8,0.5,1.3,1.1,1.6,2C29.6,196.4,29.1,195.7,29.1,194.6z"/>
<path class="st1" d="M144.5,2.2c-1.1,0.1-2.2,0.1-3.1-0.6C142.5,1.6,143.7,1.1,144.5,2.2z"/>
<path class="st1" d="M209.2,199.5c0.3-0.9,0.8-1.5,1.6-1.9C210.7,198.6,210.3,199.3,209.2,199.5z"/>
<path class="st1" d="M99.6,1.4c0.5,0,1.1,0.1,1.6,0.1c-0.9,0.7-2,0.7-3,0.6C98.5,1.6,99.1,1.5,99.6,1.4z"/>
<path class="st1" d="M97.6,2.2c-0.9,0.7-1.9,0.7-2.9,0.6C95.5,1.9,96.6,2.3,97.6,2.2z"/>
<path class="st1" d="M47,212.3c0.9,0.3,1.6,0.8,2.1,1.5C48,213.8,47.2,213.4,47,212.3z"/>
<path class="st1" d="M191.5,215.2c0.5-0.8,1.2-1.3,2.1-1.5C193.4,214.8,192.6,215.3,191.5,215.2z"/>
<path class="st1" d="M199.5,208.9c0.4-0.8,1.1-1.4,1.9-1.6C201.3,208.4,200.5,208.8,199.5,208.9z"/>
<path class="st1" d="M43.5,209.4c0.9,0.3,1.5,0.8,2,1.6C44.4,210.9,43.6,210.5,43.5,209.4z"/>
<path class="st1" d="M94.7,235.2c1.1,0,2.1,0,3,0.7C96.6,235.8,95.5,236.3,94.7,235.2z"/>
<path class="st1" d="M148,235.2c0.9-0.7,1.9-0.7,2.9-0.7C150.2,235.6,149,235.1,148,235.2z"/>
<path class="st1" d="M98.2,235.9c1.1-0.1,2.2-0.1,3.1,0.6C100.3,236.5,99.1,237,98.2,235.9z"/>
<path class="st1" d="M214.4,43.5c0.2,0.7,0.5,1.4,0.7,2.1c-0.8-0.5-1.3-1.1-1.6-2C213.8,43.6,214.1,43.6,214.4,43.5z"/>
<path class="st1" d="M4.9,92.7c0,1.1,0,2.2-0.7,3.1C4.2,94.7,3.8,93.5,4.9,92.7z"/>
<path class="st1" d="M29.1,43.5c0.2-0.7,0.5-1.4,0.7-2.1c0.3,0,0.6,0.1,0.9,0.1C30.4,42.4,29.9,43,29.1,43.5z"/>
<path class="st1" d="M199.5,29.2c0.7,0.2,1.4,0.5,2,0.7c0,0.3-0.1,0.6-0.1,0.9C200.6,30.6,199.9,30,199.5,29.2z"/>
<path class="st1" d="M210.8,39.3c0.2,0.7,0.5,1.4,0.7,2.1c-0.8-0.4-1.3-1.1-1.6-1.9C210.2,39.4,210.5,39.3,210.8,39.3z"/>
<path class="st1" d="M237.9,92.7c0,0.5,0,1-0.1,1.5c-0.7-0.9-0.7-1.9-0.7-2.9C237.8,91.6,237.9,92.1,237.9,92.7z"/>
<path class="st1" d="M4.9,145.4c0.7,0.9,0.7,1.9,0.7,2.9C4.5,147.5,5,146.4,4.9,145.4z"/>
<path class="st1" d="M237.2,146.9c0-1,0-2.1,0.7-2.9C237.8,144.9,238.2,146.1,237.2,146.9z"/>
<path class="st1" d="M4.2,142.3c0.7,0.9,0.7,2,0.7,3.1C3.8,144.6,4.3,143.4,4.2,142.3z"/>
<path class="st1" d="M237.9,143.3c-0.1-1,0-2,0.6-2.9C238.5,141.4,238.9,142.5,237.9,143.3z"/>
<path class="st1" d="M91.8,234.5c0.9-0.1,1.7,0,2.4,0.6C93.3,235.2,92.4,235.4,91.8,234.5z"/>
<path class="st1" d="M145,235.8c0.7-0.6,1.5-0.6,2.4-0.6C146.7,236.1,145.8,235.9,145,235.8z"/>
<path class="st1" d="M78.2,7.9c-0.6,0.6-1.3,0.8-2.1,0.8C76.6,7.8,77.4,7.9,78.2,7.9z"/>
<path class="st1" d="M10.7,74.2c0,0.8-0.2,1.6-0.8,2.1C9.9,75.5,9.7,74.6,10.7,74.2z"/>
<path class="st1" d="M94.1,3c-0.7,0.6-1.5,0.7-2.3,0.6C92.4,2.7,93.3,2.9,94.1,3z"/>
<path class="st1" d="M91.3,3.7c-0.7,0.6-1.5,0.7-2.3,0.6C89.5,3.5,90.4,3.6,91.3,3.7z"/>
<path class="st1" d="M71.2,227.2c0.8,0,1.5,0.2,2,0.9C72.4,228.1,71.6,228.2,71.2,227.2z"/>
<path class="st1" d="M232.8,77.1c0.3,0,0.5,0,0.8,0c0,0.7,0,1.4,0,2.1C233,78.6,232.8,77.9,232.8,77.1z"/>
<path class="st1" d="M155.9,233c0.6-0.6,1.3-0.7,2.1-0.7C157.5,233.2,156.7,233.1,155.9,233z"/>
<path class="st1" d="M84,232.3c0.8,0,1.7,0.1,2.3,0.7C85.5,233,84.5,233.3,84,232.3z"/>
<path class="st1" d="M158.1,232.3c0.6-0.6,1.3-0.8,2.1-0.7C159.7,232.5,158.9,232.3,158.1,232.3z"/>
<path class="st1" d="M150.9,234.5c0.6-0.6,1.4-0.7,2.2-0.6C152.5,234.6,151.7,234.5,150.9,234.5z"/>
<path class="st1" d="M89,233.8c0.9,0,1.7,0,2.4,0.6C90.5,234.5,89.6,234.7,89,233.8z"/>
<path class="st1" d="M153.6,233.7c0.6-0.6,1.4-0.7,2.3-0.7C155.4,234,154.5,233.8,153.6,233.7z"/>
<path class="st1" d="M86.8,233.1c0.8-0.1,1.5,0,2.1,0.6C88.2,233.8,87.4,233.9,86.8,233.1z"/>
<path class="st1" d="M76.2,229.4c0.8,0,1.5,0.2,2.1,0.8C77.5,230.2,76.6,230.4,76.2,229.4z"/>
<path class="st1" d="M165.9,229.5c0.5-0.7,1.3-0.8,2.1-0.8C167.6,229.7,166.7,229.5,165.9,229.5z"/>
<path class="st1" d="M81.9,231.5c0.8,0,1.6,0,2.2,0.7C83.2,232.3,82.3,232.5,81.9,231.5z"/>
<path class="st1" d="M160.2,231.6c0.6-0.6,1.3-0.8,2.1-0.7C161.8,231.8,161,231.6,160.2,231.6z"/>
<path class="st1" d="M162.3,230.9c0.6-0.7,1.3-0.8,2.1-0.8C164,231.1,163.1,230.9,162.3,230.9z"/>
<path class="st1" d="M153.7,4.4c0.5,0,1,0,1.5-0.1c0.2,0.2,0.5,0.5,0.7,0.7C155.1,5.1,154.3,5,153.7,4.4z"/>
<path class="st1" d="M164.5,8c-0.8,0-1.5-0.1-2.1-0.8C163.1,7.2,164,7,164.5,8z"/>
<path class="st1" d="M5.6,89.8c0.1,0.9,0,1.8-0.6,2.5C4.9,91.4,4.7,90.5,5.6,89.8z"/>
<path class="st1" d="M236.4,88c-0.7-0.7-0.7-1.5-0.7-2.4C236.7,86.2,236.4,87.1,236.4,88z"/>
<path class="st1" d="M7,84.9c0,0.8-0.1,1.5-0.7,2.1C6.3,86.2,6.2,85.4,7,84.9z"/>
<path class="st1" d="M146,2.1c0.5,0.1,1.1,0.2,1.4,0.7c-0.8,0.1-1.6,0-2.3-0.6C145.4,2.2,145.7,2.2,146,2.1z"/>
<path class="st1" d="M6.3,87c0,0.9,0,1.7-0.7,2.4C5.6,88.5,5.4,87.6,6.3,87z"/>
<path class="st1" d="M237.1,90.8c-0.6-0.7-0.7-1.5-0.6-2.4C237.4,89,237.1,89.9,237.1,90.8z"/>
<path class="st1" d="M235.7,85.6c-0.6-0.6-0.7-1.4-0.7-2.2C235.9,84,235.7,84.8,235.7,85.6z"/>
<path class="st1" d="M235,154.7c0-0.8,0-1.6,0.7-2.2C235.7,153.3,235.9,154.2,235,154.7z"/>
<path class="st1" d="M232.8,161.1c0-0.8,0.1-1.6,0.8-2.1C233.6,159.7,233.8,160.6,232.8,161.1z"/>
<path class="st1" d="M5.7,148.7c0.7,0.7,0.7,1.5,0.7,2.4C5.4,150.5,5.6,149.6,5.7,148.7z"/>
<path class="st1" d="M235.7,152.5c0-0.9,0-1.7,0.7-2.4C236.4,151,236.7,151.9,235.7,152.5z"/>
<path class="st1" d="M6.3,151.1c0.6,0.6,0.7,1.4,0.7,2.2C6.1,152.7,6.3,151.9,6.3,151.1z"/>
<path class="st1" d="M236.5,149.7c0-0.9,0-1.7,0.6-2.4C237.1,148.2,237.4,149.1,236.5,149.7z"/>
<path class="st1" d="M234.3,156.8c-0.1-0.8,0.1-1.6,0.7-2.2C235,155.5,235.2,156.3,234.3,156.8z"/>
<path class="st1" d="M78.3,7.2c0.5,0,1.1,0,1.6,0.1c-0.4,0.6-1,0.7-1.6,0.6C78.3,7.7,78.3,7.4,78.3,7.2z"/>
<path class="st1" d="M162.3,7.2c-0.7,0-1.2-0.1-1.7-0.6C161.3,6.5,161.9,6.5,162.3,7.2z"/>
<path class="st1" d="M74.7,9.3c0-0.2,0-0.5,0-0.7c0.5,0,1,0,1.5,0.1C75.9,9.3,75.3,9.3,74.7,9.3z"/>
<path class="st1" d="M168,9.4c-0.7,0-1.3-0.1-1.7-0.7C167,8.6,167.7,8.7,168,9.4z"/>
<path class="st1" d="M165.9,8.6c-0.6,0-1.1-0.1-1.5-0.6C165,7.9,165.6,8,165.9,8.6z"/>
<path class="st1" d="M158.1,5.7c-0.7,0.1-1.3,0-1.7-0.6C157,5.1,157.6,5.1,158.1,5.7z"/>
<path class="st1" d="M160.2,6.4c-0.6,0.1-1.2-0.1-1.7-0.6C159.2,5.8,159.8,5.8,160.2,6.4z"/>
<path class="st1" d="M172.4,226.7c0.3-0.5,0.8-0.7,1.4-0.7C173.4,226.5,172.9,226.7,172.4,226.7z"/>
<path class="st1" d="M68.3,225.8c0.6,0,1.1,0.1,1.5,0.7C69.2,226.6,68.6,226.6,68.3,225.8z"/>
<path class="st1" d="M173.8,226c0.3-0.5,0.8-0.7,1.4-0.7C174.9,225.8,174.4,225.9,173.8,226z"/>
<path class="st1" d="M66.9,225.1c0.6,0,1.1,0.1,1.5,0.7C67.7,225.9,67.2,225.8,66.9,225.1z"/>
<path class="st1" d="M170.9,227.4c0.3-0.5,0.8-0.7,1.4-0.7C172,227.3,171.5,227.4,170.9,227.4z"/>
<path class="st1" d="M69.8,226.6c0.6,0,1.2,0.1,1.5,0.7C70.6,227.4,70,227.3,69.8,226.6z"/>
<path class="st1" d="M176.6,224.5c0.3-0.5,0.8-0.7,1.4-0.7C177.7,224.4,177.2,224.5,176.6,224.5z"/>
<path class="st1" d="M64.1,223.7c0.6,0,1.1,0.2,1.4,0.8C64.9,224.5,64.3,224.4,64.1,223.7z"/>
<path class="st1" d="M178,223.8c0.3-0.5,0.8-0.7,1.4-0.8C179.2,223.7,178.6,223.8,178,223.8z"/>
<path class="st1" d="M179.4,223c0.3-0.6,0.8-0.7,1.4-0.8C180.6,223,180,223.1,179.4,223z"/>
<path class="st1" d="M61.9,222.4c0.6,0,1,0.2,1.3,0.7C62.7,223.1,62.2,223,61.9,222.4z"/>
<path class="st1" d="M175.2,225.2c0.3-0.5,0.8-0.7,1.4-0.7C176.3,225.1,175.8,225.2,175.2,225.2z"/>
<path class="st1" d="M65.5,224.4c0.6,0,1.1,0.2,1.4,0.8C66.3,225.2,65.7,225.1,65.5,224.4z"/>
<path class="st1" d="M80.4,231c0.6,0,1.1,0,1.5,0.6C81.3,231.6,80.8,231.6,80.4,231z"/>
<path class="st1" d="M78.3,230.2c0.6,0,1.2,0.1,1.7,0.6C79.3,230.9,78.7,230.9,78.3,230.2z"/>
<path class="st1" d="M68.3,12.2c-0.3,0.6-0.9,0.7-1.4,0.7C67.2,12.3,67.7,12.2,68.3,12.2z"/>
<path class="st1" d="M66.9,12.9c-0.3,0.6-0.8,0.7-1.4,0.8C65.7,13,66.3,12.9,66.9,12.9z"/>
<path class="st1" d="M167.9,228.7c0.3-0.6,0.9-0.7,1.5-0.7C169.1,228.7,168.6,228.8,167.9,228.7z"/>
<path class="st1" d="M73.3,228.1c0.6,0,1.1,0.1,1.4,0.6C74.1,228.8,73.6,228.7,73.3,228.1z"/>
<path class="st1" d="M169.4,228c0.3-0.6,0.9-0.7,1.5-0.7C170.6,228,170,228.1,169.4,228z"/>
<path class="st1" d="M164.4,230.1c0.3-0.6,0.9-0.7,1.5-0.6C165.6,230.1,165,230.2,164.4,230.1z"/>
<path class="st1" d="M74.7,228.8c0.6,0,1.2,0.1,1.5,0.6C75.6,229.5,75,229.4,74.7,228.8z"/>
<path class="st1" d="M70.4,10.7c0.3,0,0.5,0.1,0.8,0.1c-0.3,0.6-0.9,0.7-1.5,0.7C70,11.3,70.2,11,70.4,10.7z"/>
<path class="st1" d="M69.8,11.5c-0.3,0.6-0.9,0.7-1.5,0.7C68.6,11.6,69.1,11.5,69.8,11.5z"/>
<path class="st1" d="M60.5,16.5c-0.3,0.6-0.8,0.8-1.4,0.8C59.3,16.6,59.9,16.5,60.5,16.5z"/>
<path class="st1" d="M10.6,72.7c0.2,0,0.5,0,0.7,0c0,0.6-0.1,1.2-0.7,1.5C10.6,73.8,10.6,73.2,10.6,72.7z"/>
<path class="st1" d="M228.6,67.1c-0.6-0.3-0.7-0.9-0.7-1.5C228.5,65.9,228.6,66.5,228.6,67.1z"/>
<path class="st1" d="M14.9,64.9c0,0.6-0.2,1.2-0.7,1.5C14.1,65.8,14.2,65.2,14.9,64.9z"/>
<path class="st1" d="M227.9,65.7c-0.6-0.3-0.7-0.9-0.7-1.5C227.8,64.5,227.9,65.1,227.9,65.7z"/>
<path class="st1" d="M15.7,63.5c0,0.6-0.2,1.1-0.8,1.5C14.9,64.3,15,63.8,15.7,63.5z"/>
<path class="st1" d="M230.1,69.2c0,0.3-0.1,0.6-0.1,0.8c-0.6-0.3-0.7-0.9-0.7-1.5C229.5,68.7,229.8,69,230.1,69.2z"/>
<path class="st1" d="M12.8,69.3c0-0.3-0.1-0.6-0.1-0.8c0.3-0.2,0.6-0.4,0.8-0.7C13.5,68.4,13.4,69,12.8,69.3z"/>
<path class="st1" d="M229.3,68.6c-0.6-0.3-0.7-0.9-0.7-1.5C229.2,67.4,229.3,67.9,229.3,68.6z"/>
<path class="st1" d="M14.2,66.4c0,0.6-0.2,1.2-0.7,1.5C13.4,67.2,13.5,66.6,14.2,66.4z"/>
<path class="st1" d="M61.2,15.7c0.2,0,0.4,0,0.7,0c-0.3,0.5-0.8,0.8-1.4,0.8C60.7,16.2,60.9,16,61.2,15.7z"/>
<path class="st1" d="M234.9,83.1c-0.6-0.5-0.7-1.1-0.6-1.8C235,81.7,235,82.4,234.9,83.1z"/>
<path class="st1" d="M7.1,153.7c0.5,0.4,0.6,1,0.6,1.7C7,155,7,154.4,7.1,153.7z"/>
<path class="st1" d="M178.1,14.3c0.2,0,0.5,0,0.7,0c0.2,0.3,0.5,0.5,0.7,0.8C178.8,15.1,178.4,14.8,178.1,14.3z"/>
<path class="st1" d="M180.2,15c0.2,0.3,0.4,0.6,0.7,0.8c-0.6,0-1.1-0.2-1.4-0.8C179.7,15,179.9,15,180.2,15z"/>
<path class="st1" d="M234.2,80.9c-0.6-0.5-0.7-1.1-0.6-1.7C234.3,79.6,234.3,80.2,234.2,80.9z"/>
<path class="st1" d="M9.2,78c0-0.6-0.1-1.1-0.1-1.7c0.2,0,0.5,0,0.7,0C9.9,77,9.8,77.6,9.2,78z"/>
<path class="st1" d="M24.1,48.5c0.3,0,0.6,0.1,0.9,0.1c-0.1,0.6-0.3,1-0.9,1.3C24.1,49.5,24.1,49,24.1,48.5z"/>
<path class="st1" d="M218.5,50.1c0.3,0,0.6-0.1,0.9-0.1c0,0.5,0,1,0,1.4C218.8,51.1,218.6,50.7,218.5,50.1z"/>
<path class="st1" d="M50.6,23c0-0.3-0.1-0.6-0.1-0.9c0.5,0,0.9,0,1.4,0C51.6,22.7,51.2,22.9,50.6,23z"/>
<path class="st1" d="M192.9,23.8c-0.6-0.1-1.1-0.4-1.3-0.9C192.2,22.9,192.8,23,192.9,23.8z"/>
<path class="st1" d="M17.7,59.9c0-0.2,0-0.5,0-0.7c0.3-0.2,0.6-0.5,0.8-0.7C18.4,59.1,18.2,59.6,17.7,59.9z"/>
<path class="st1" d="M224.3,57.8c0,0.5,0,1,0,1.4c-0.6-0.3-0.8-0.8-0.8-1.4C223.8,57.8,224.1,57.8,224.3,57.8z"/>
<path class="st1" d="M227.1,64.3c-0.6-0.3-0.7-0.9-0.8-1.5C227.1,63.1,227.2,63.6,227.1,64.3z"/>
<path class="st1" d="M15.5,62.8c0.2-0.4,0.5-0.6,0.9-0.6c-0.1,0.6-0.2,1.1-0.8,1.4C15.6,63.3,15.6,63,15.5,62.8z"/>
<path class="st1" d="M225.6,61.4c0.4,0,0.7,0.3,0.9,0.6c0,0.3-0.1,0.5-0.1,0.8C225.8,62.6,225.7,62,225.6,61.4z"/>
<path class="st1" d="M19.8,55.6c0.3-0.2,0.6-0.4,0.9-0.7c-0.1,0.6-0.3,1.1-0.8,1.4C19.8,56.1,19.8,55.9,19.8,55.6z"/>
<path class="st1" d="M222.2,55.7c-0.6-0.3-0.8-0.8-0.9-1.4C222.1,54.5,222.2,55,222.2,55.7z"/>
<path class="st1" d="M220.8,53.5c-0.6-0.3-0.8-0.8-0.9-1.4C220.6,52.3,220.8,52.9,220.8,53.5z"/>
<path class="st1" d="M19.3,57.1c-0.1,0.6-0.3,1.1-0.8,1.4C18.4,57.9,18.5,57.3,19.3,57.1z"/>
<path class="st1" d="M223.6,57.9c-0.6-0.3-0.8-0.8-0.9-1.4C223.5,56.6,223.6,57.2,223.6,57.9z"/>
<path class="st1" d="M56.9,18.7c0.2-0.3,0.4-0.6,0.7-0.8c0.2,0,0.4,0,0.7,0C58,18.4,57.5,18.6,56.9,18.7z"/>
<path class="st1" d="M218.4,188.1c0.1-0.6,0.3-1.1,0.9-1.3C219.3,187.4,219.2,187.9,218.4,188.1z"/>
<path class="st1" d="M22.7,186.1c0.5,0.3,0.8,0.7,0.9,1.3C22.9,187.2,22.7,186.7,22.7,186.1z"/>
<path class="st1" d="M219.9,186c0.1-0.6,0.3-1.1,0.9-1.4C220.8,185.2,220.6,185.8,219.9,186z"/>
<path class="st1" d="M21.2,183.9c0.5,0.3,0.8,0.8,0.8,1.3C21.4,185.1,21.3,184.5,21.2,183.9z"/>
<path class="st1" d="M216.3,190.9c0.1-0.6,0.4-1,0.9-1.3C217.2,190.3,217,190.8,216.3,190.9z"/>
<path class="st1" d="M24.1,188.2c0.6,0.3,0.8,0.7,0.9,1.3C24.3,189.4,24.1,188.8,24.1,188.2z"/>
<path class="st1" d="M18.5,179.5c0.6,0.3,0.8,0.8,0.8,1.4C18.5,180.8,18.4,180.2,18.5,179.5z"/>
<path class="st1" d="M223.5,180.3c0.1-0.6,0.3-1.1,0.8-1.4C224.3,179.5,224.2,180.1,223.5,180.3z"/>
<path class="st1" d="M17.7,178.2c0.5,0.3,0.8,0.8,0.8,1.4C17.8,179.3,17.7,178.8,17.7,178.2z"/>
<path class="st1" d="M221.3,183.8c0.1-0.6,0.3-1.1,0.9-1.4C222.2,183.1,222.1,183.7,221.3,183.8z"/>
<path class="st1" d="M19.8,181.8c0.6,0.3,0.8,0.8,0.8,1.4C20,182.9,19.9,182.4,19.8,181.8z"/>
<path class="st1" d="M222.2,182.5c0-0.6,0.3-1,0.8-1.3C222.9,181.7,222.7,182.2,222.2,182.5z"/>
<path class="st1" d="M183,220.9c0.3-0.6,0.8-0.8,1.4-0.8C184.2,220.8,183.6,220.9,183,220.9z"/>
<path class="st1" d="M56.9,219.4c0.6,0.1,1.1,0.3,1.4,0.8C57.7,220.2,57.2,220.1,56.9,219.4z"/>
<path class="st1" d="M185.2,219.5c0.3-0.5,0.7-0.8,1.3-0.8C186.3,219.4,185.8,219.5,185.2,219.5z"/>
<path class="st1" d="M60.5,221.6c0.6,0,1.1,0.2,1.4,0.8C61.3,222.4,60.7,222.2,60.5,221.6z"/>
<path class="st1" d="M181.7,221.7c0.3-0.5,0.7-0.7,1.3-0.8C182.7,221.5,182.2,221.7,181.7,221.7z"/>
<path class="st1" d="M59.1,220.8c0.6,0.1,1.1,0.2,1.4,0.8C59.9,221.6,59.3,221.6,59.1,220.8z"/>
<path class="st1" d="M50.6,215.1c0.6,0.1,1.1,0.3,1.3,0.9C51.3,215.9,50.7,215.8,50.6,215.1z"/>
<path class="st1" d="M195.2,212.4c0.2-0.6,0.7-0.8,1.2-0.9C196.3,212.2,195.8,212.4,195.2,212.4z"/>
<path class="st1" d="M64.1,14.4c0.2-0.3,0.4-0.6,0.6-0.9c0.3,0,0.5,0.1,0.8,0.1C65.2,14.2,64.7,14.4,64.1,14.4z"/>
<path class="st1" d="M54.8,218c0.6,0.1,1,0.3,1.3,0.8C55.5,218.8,55,218.7,54.8,218z"/>
<path class="st1" d="M187.4,218.1c0.3-0.5,0.7-0.8,1.3-0.8C188.5,217.9,187.9,218.1,187.4,218.1z"/>
<path class="st1" d="M52.7,216.5c0.6,0.1,1,0.3,1.3,0.9C53.4,217.4,52.9,217.2,52.7,216.5z"/>
<path class="st1" d="M189.5,216.7c0.3-0.5,0.7-0.8,1.3-0.9C190.6,216.5,190.1,216.7,189.5,216.7z"/>
<path class="st1" d="M11.3,165.3c0.5,0.4,0.7,0.9,0.7,1.5C11.4,166.5,11.3,165.9,11.3,165.3z"/>
<path class="st1" d="M230.8,166.1c0-0.6,0.1-1.1,0.7-1.5C231.5,165.2,231.4,165.8,230.8,166.1z"/>
<path class="st1" d="M10.6,163.7c0.6,0.4,0.7,1,0.7,1.6C10.6,165,10.6,164.4,10.6,163.7z"/>
<path class="st1" d="M231.4,164.6c0-0.7,0.1-1.3,0.7-1.7C232.2,163.6,232.1,164.3,231.4,164.6z"/>
<path class="st1" d="M12,166.8c0.5,0.3,0.7,0.8,0.6,1.4C12.1,167.9,12,167.4,12,166.8z"/>
<path class="st1" d="M230.1,167.5c0-0.6,0.2-1,0.6-1.4C230.8,166.7,230.7,167.2,230.1,167.5z"/>
<path class="st1" d="M8.5,158c0.5,0.4,0.7,1,0.6,1.6C8.5,159.3,8.4,158.7,8.5,158z"/>
<path class="st1" d="M233.6,159c0-0.7,0.1-1.3,0.6-1.7C234.3,157.9,234.3,158.6,233.6,159z"/>
<path class="st1" d="M7.8,155.9c0.5,0.4,0.6,1,0.6,1.6C7.8,157.1,7.7,156.5,7.8,155.9z"/>
<path class="st1" d="M9.9,161.8c0.5,0.4,0.7,0.9,0.6,1.4C9.9,162.9,9.9,162.4,9.9,161.8z"/>
<path class="st1" d="M232.2,162.5c0-0.6,0.1-1.1,0.6-1.5C232.9,161.6,232.8,162.2,232.2,162.5z"/>
<path class="st1" d="M9.2,160.1c0.6,0.4,0.7,1,0.7,1.7C9.2,161.4,9.2,160.8,9.2,160.1z"/>
<path class="st1" d="M15.7,174.5c0.6,0.3,0.7,0.9,0.8,1.5C15.7,175.8,15.6,175.2,15.7,174.5z"/>
<path class="st1" d="M226.3,175.3c0-0.6,0.2-1.1,0.8-1.5C227.2,174.5,227.1,175.1,226.3,175.3z"/>
<path class="st1" d="M14.9,173.1c0.6,0.3,0.7,0.9,0.8,1.5C15,174.4,14.9,173.8,14.9,173.1z"/>
<path class="st1" d="M224.3,178.9c0-0.6,0.3-1,0.8-1.4C225,178.1,224.9,178.6,224.3,178.9z"/>
<path class="st1" d="M17,176.8c0.5,0.3,0.7,0.8,0.8,1.4C17.1,177.9,17,177.4,17,176.8z"/>
<path class="st1" d="M225.6,176.7c0.1-0.6,0.2-1.1,0.8-1.5C226.5,175.9,226.4,176.5,225.6,176.7z"/>
<path class="st1" d="M13.5,170.3c0.6,0.3,0.7,0.9,0.7,1.5C13.5,171.5,13.4,170.9,13.5,170.3z"/>
<path class="st1" d="M228.5,171c0-0.6,0.1-1.2,0.7-1.5C229.3,170.2,229.2,170.8,228.5,171z"/>
<path class="st1" d="M12.8,168.7c0.6,0.4,0.7,1,0.7,1.6C12.8,170,12.7,169.4,12.8,168.7z"/>
<path class="st1" d="M229.2,169.6c0-0.6,0.2-1.2,0.7-1.6C230,168.7,230,169.3,229.2,169.6z"/>
<path class="st1" d="M227.1,173.9c0-0.6,0.2-1.1,0.8-1.5C227.9,173.1,227.8,173.6,227.1,173.9z"/>
<path class="st1" d="M14.2,171.7c0.6,0.3,0.7,0.9,0.8,1.5C14.2,172.9,14.1,172.3,14.2,171.7z"/>
<path class="st1" d="M227.8,172.5c0-0.6,0.2-1.1,0.7-1.5C228.6,171.6,228.5,172.2,227.8,172.5z"/>
<path class="st1" d="M170.9,10c0,0.2,0,0.5,0,0.7c-0.6,0-1.1-0.1-1.4-0.7C169.9,10.1,170.4,10,170.9,10z"/>
<path class="st1" d="M169.5,10.1c-0.6,0-1.1-0.1-1.5-0.7C168.6,9.3,169.1,9.4,169.5,10.1z"/>
<path class="st1" d="M223,181.1c0-0.4,0.2-0.7,0.6-0.8C223.4,180.5,223.2,180.8,223,181.1z"/>
<path class="st1" d="M16.4,175.9c0.4,0.1,0.6,0.5,0.6,0.9C16.6,176.6,16.4,176.3,16.4,175.9z"/>
<path class="st1" d="M225.1,177.5c0-0.4,0.1-0.7,0.6-0.9C225.6,177,225.4,177.3,225.1,177.5z"/>
<path class="st1" d="M207.8,200.9c0.1-0.4,0.3-0.7,0.8-0.8C208.5,200.6,208.2,200.8,207.8,200.9z"/>
<path class="st1" d="M34.1,200.3c0.4,0.1,0.6,0.3,0.7,0.7C34.5,200.8,34.3,200.5,34.1,200.3z"/>
<path class="st1" d="M34.8,201.1c0.4,0.1,0.6,0.3,0.6,0.7C35.2,201.5,35,201.3,34.8,201.1z"/>
<path class="st1" d="M32.7,198.8c0.4,0.1,0.6,0.3,0.7,0.7C33.2,199.3,32.9,199.1,32.7,198.8z"/>
<path class="st1" d="M32,198.1c0.4,0.1,0.6,0.4,0.7,0.8C32.3,198.7,32.1,198.5,32,198.1z"/>
<path class="st1" d="M208.5,200.2c0.1-0.4,0.3-0.7,0.8-0.8C209.2,199.9,209,200.1,208.5,200.2z"/>
<path class="st1" d="M33.4,199.6c0.4,0.1,0.6,0.3,0.7,0.7C33.8,200.1,33.6,199.8,33.4,199.6z"/>
<path class="st1" d="M206.4,202.4c0.1-0.4,0.3-0.7,0.8-0.8C207.1,202,206.8,202.3,206.4,202.4z"/>
<path class="st1" d="M207.1,201.7c0.1-0.4,0.3-0.7,0.8-0.8C207.8,201.3,207.5,201.6,207.1,201.7z"/>
<path class="st1" d="M35.5,201.8c0.4,0.1,0.6,0.3,0.6,0.6C35.9,202.2,35.7,202,35.5,201.8z"/>
<path class="st1" d="M217.2,189.6c0-0.4,0.2-0.7,0.6-0.8C217.7,189.1,217.5,189.3,217.2,189.6z"/>
<path class="st1" d="M217.8,188.9c0-0.4,0.2-0.7,0.7-0.9C218.5,188.4,218.3,188.7,217.8,188.9z"/>
<path class="st1" d="M23.5,187.3c0.4,0.1,0.6,0.4,0.6,0.8C23.7,188,23.5,187.7,23.5,187.3z"/>
<path class="st1" d="M215.7,191.7c0.1-0.4,0.3-0.7,0.7-0.8C216.3,191.3,216.1,191.6,215.7,191.7z"/>
<path class="st1" d="M25.6,190.2c0.4,0.1,0.6,0.4,0.7,0.8C26,190.8,25.8,190.5,25.6,190.2z"/>
<path class="st1" d="M25,189.4c0.4,0.1,0.6,0.4,0.7,0.9C25.2,190.1,25,189.9,25,189.4z"/>
<path class="st1" d="M20.6,183.1c0.4,0.1,0.6,0.4,0.6,0.8C21,183.6,20.8,183.4,20.6,183.1z"/>
<path class="st1" d="M19.2,180.9c0.4,0.1,0.6,0.5,0.6,0.9C19.5,181.6,19.3,181.3,19.2,180.9z"/>
<path class="st1" d="M219.3,186.7c0-0.4,0.2-0.7,0.6-0.8C219.9,186.3,219.7,186.6,219.3,186.7z"/>
<path class="st1" d="M22,185.2c0.4,0.1,0.6,0.4,0.6,0.8C22.4,185.8,22.2,185.5,22,185.2z"/>
<path class="st1" d="M220.8,184.6c0-0.4,0.2-0.7,0.6-0.9C221.4,184.2,221.1,184.4,220.8,184.6z"/>
<path class="st1" d="M211.6,196.7c0-0.4,0.3-0.6,0.7-0.7C212,196.2,211.8,196.5,211.6,196.7z"/>
<path class="st1" d="M212.2,196c0.1-0.4,0.3-0.7,0.7-0.8C212.7,195.5,212.4,195.7,212.2,196z"/>
<path class="st1" d="M31.3,197.3c0.4,0.1,0.7,0.4,0.7,0.8C31.6,198,31.4,197.7,31.3,197.3z"/>
<path class="st1" d="M210.9,197.5c0-0.4,0.2-0.6,0.6-0.7C211.3,197,211.1,197.2,210.9,197.5z"/>
<path class="st1" d="M30.6,196.6c0.4,0.1,0.7,0.4,0.7,0.8C30.9,197.3,30.7,197,30.6,196.6z"/>
<path class="st1" d="M215.1,192.5c0-0.4,0.3-0.7,0.7-0.8C215.5,191.9,215.3,192.2,215.1,192.5z"/>
<path class="st1" d="M212.9,195.3c0.1-0.4,0.3-0.7,0.7-0.8C213.5,194.9,213.3,195.1,212.9,195.3z"/>
<path class="st1" d="M28.4,193.8c0.4,0.1,0.6,0.4,0.7,0.8C28.8,194.3,28.6,194.1,28.4,193.8z"/>
<path class="st1" d="M27.7,193c0.4,0.1,0.6,0.4,0.7,0.8C28,193.7,27.8,193.4,27.7,193z"/>
<path class="st1" d="M31.3,40.7c-0.1,0.4-0.3,0.7-0.7,0.8C30.7,41.1,30.9,40.8,31.3,40.7z"/>
<path class="st1" d="M31.2,40c0.3,0,0.5,0,0.8,0c-0.1,0.4-0.3,0.7-0.7,0.8C31.3,40.5,31.3,40.2,31.2,40z"/>
<path class="st1" d="M212.9,42.9c0.3,0,0.5,0,0.8,0c0,0.3-0.1,0.5-0.1,0.8C213.1,43.5,212.9,43.3,212.9,42.9z"/>
<path class="st1" d="M42,30c0-0.3,0-0.5,0-0.8c0.3,0,0.5,0,0.8,0C42.6,29.8,42.4,30,42,30z"/>
<path class="st1" d="M43.5,28.7c-0.1,0.4-0.4,0.7-0.8,0.7C42.8,29,43.1,28.7,43.5,28.7z"/>
<path class="st1" d="M43.3,27.9c0.3,0.1,0.6,0.1,0.9,0.2c-0.1,0.4-0.4,0.6-0.8,0.7C43.4,28.4,43.4,28.1,43.3,27.9z"/>
<path class="st1" d="M190.8,22.2c0.3,0,0.5,0,0.8-0.1c0,0.2,0,0.5,0,0.7C191.1,22.8,190.9,22.6,190.8,22.2z"/>
<path class="st1" d="M51.9,21.4c0.3,0,0.5,0,0.8,0.1c-0.1,0.4-0.4,0.6-0.8,0.6C51.9,21.9,51.9,21.7,51.9,21.4z"/>
<path class="st1" d="M193.7,23.6c0,0.3-0.1,0.5-0.1,0.8c-0.4,0-0.7-0.2-0.8-0.6C193.1,23.7,193.4,23.6,193.7,23.6z"/>
<path class="st1" d="M208.6,38c-0.4-0.1-0.7-0.4-0.7-0.8C208.3,37.3,208.5,37.5,208.6,38z"/>
<path class="st1" d="M207.9,37.2c-0.4-0.1-0.7-0.4-0.7-0.8C207.5,36.6,207.8,36.8,207.9,37.2z"/>
<path class="st1" d="M207.2,36.5c-0.4-0.1-0.7-0.3-0.8-0.8C206.8,35.8,207.1,36.1,207.2,36.5z"/>
<path class="st1" d="M210,39.4c-0.4-0.1-0.7-0.4-0.8-0.8C209.7,38.7,209.9,39,210,39.4z"/>
<path class="st1" d="M209.3,38.7c-0.4-0.1-0.7-0.4-0.8-0.8C209,38,209.2,38.3,209.3,38.7z"/>
<path class="st1" d="M203.6,32.9c-0.4-0.1-0.7-0.3-0.8-0.7C203.3,32.3,203.5,32.5,203.6,32.9z"/>
<path class="st1" d="M202.9,32.2c-0.4-0.1-0.7-0.3-0.8-0.8C202.5,31.6,202.8,31.8,202.9,32.2z"/>
<path class="st1" d="M202.2,31.6c-0.4-0.1-0.7-0.3-0.8-0.8C201.8,30.9,202.1,31.1,202.2,31.6z"/>
<path class="st1" d="M206.5,35.8c-0.4-0.1-0.7-0.3-0.8-0.8C206.1,35.1,206.4,35.4,206.5,35.8z"/>
<path class="st1" d="M205.8,35.1c-0.4-0.1-0.7-0.3-0.8-0.8C205.4,34.4,205.7,34.7,205.8,35.1z"/>
<path class="st1" d="M205.1,34.3c-0.4-0.1-0.7-0.3-0.8-0.8C204.7,33.7,204.9,34,205.1,34.3z"/>
<path class="st1" d="M204.3,33.6c-0.4-0.1-0.7-0.3-0.8-0.8C204,33,204.2,33.2,204.3,33.6z"/>
<path class="st1" d="M222.8,56.5c-0.4-0.1-0.6-0.5-0.6-0.9C222.6,55.8,222.8,56.1,222.8,56.5z"/>
<path class="st1" d="M19.8,56.4c0,0.4-0.2,0.7-0.6,0.9C19.3,56.8,19.5,56.5,19.8,56.4z"/>
<path class="st1" d="M221.4,54.4c-0.4-0.1-0.6-0.4-0.6-0.9C221.1,53.7,221.4,54,221.4,54.4z"/>
<path class="st1" d="M59.2,17.3c-0.1,0.4-0.4,0.6-0.8,0.6C58.5,17.5,58.8,17.3,59.2,17.3z"/>
<path class="st1" d="M23.5,50.7c0-0.3,0-0.5-0.1-0.8c0.2,0,0.5,0,0.7,0C24.1,50.4,23.9,50.6,23.5,50.7z"/>
<path class="st1" d="M220,52.2c-0.4-0.1-0.6-0.4-0.6-0.8C219.7,51.5,219.9,51.8,220,52.2z"/>
<path class="st1" d="M198.7,209.5c0.1-0.4,0.3-0.6,0.7-0.6C199.2,209.1,198.9,209.3,198.7,209.5z"/>
<path class="st1" d="M42.7,208.7c0.4,0.1,0.7,0.3,0.8,0.7C43.1,209.4,42.8,209.1,42.7,208.7z"/>
<path class="st1" d="M42,208c0.4,0.1,0.7,0.3,0.8,0.7C42.3,208.7,42.1,208.5,42,208z"/>
<path class="st1" d="M197.1,210.9c0.1-0.4,0.4-0.6,0.8-0.7C197.8,210.6,197.5,210.8,197.1,210.9z"/>
<path class="st1" d="M197.9,210.2c0.1-0.4,0.4-0.6,0.8-0.7C198.4,209.8,198.2,210,197.9,210.2z"/>
<path class="st1" d="M202.1,206.6c0.1-0.4,0.4-0.7,0.8-0.7C202.8,206.3,202.5,206.5,202.1,206.6z"/>
<path class="st1" d="M39.8,206c0.4,0,0.6,0.3,0.7,0.7C40.3,206.5,40,206.2,39.8,206z"/>
<path class="st1" d="M41.2,207.4c0.4,0.1,0.7,0.3,0.8,0.7C41.6,208,41.4,207.8,41.2,207.4z"/>
<path class="st1" d="M201.3,207.3c0.1-0.4,0.4-0.7,0.8-0.8C202.1,207,201.8,207.2,201.3,207.3z"/>
<path class="st1" d="M40.5,206.7c0.4,0.1,0.6,0.3,0.7,0.7C41,207.2,40.8,206.9,40.5,206.7z"/>
<path class="st1" d="M188.6,217.3c0.1-0.4,0.4-0.6,0.8-0.6C189.2,216.9,188.9,217.1,188.6,217.3z"/>
<path class="st1" d="M51.9,216c0.4,0,0.7,0.2,0.8,0.6C52.3,216.6,52.1,216.3,51.9,216z"/>
<path class="st1" d="M190.7,215.9c0.1-0.4,0.4-0.6,0.8-0.7C191.4,215.6,191.1,215.8,190.7,215.9z"/>
<path class="st1" d="M56.2,218.9c0.4,0,0.7,0.2,0.8,0.6C56.7,219.3,56.5,219.1,56.2,218.9z"/>
<path class="st1" d="M186.5,218.8c0.1-0.4,0.4-0.6,0.8-0.6C187,218.4,186.8,218.6,186.5,218.8z"/>
<path class="st1" d="M54,217.4c0.4,0,0.7,0.2,0.8,0.6C54.5,218,54.2,217.8,54,217.4z"/>
<path class="st1" d="M46.2,211.6c0.4,0.1,0.7,0.3,0.8,0.7C46.6,212.3,46.4,212,46.2,211.6z"/>
<path class="st1" d="M196.4,211.6c0.1-0.4,0.4-0.6,0.8-0.7C197.1,211.3,196.8,211.5,196.4,211.6z"/>
<path class="st1" d="M45.5,211c0.4,0,0.7,0.3,0.8,0.6C46,211.4,45.7,211.2,45.5,211z"/>
<path class="st1" d="M49.8,214.5c0.4,0,0.7,0.2,0.8,0.7C50.2,215.1,49.9,214.9,49.8,214.5z"/>
<path class="st1" d="M49.1,213.8c0.4,0,0.7,0.2,0.8,0.6C49.6,214.3,49.3,214.1,49.1,213.8z"/>
<path class="st1" d="M193.6,213.8c0.1-0.4,0.4-0.6,0.8-0.7C194.2,213.5,194,213.7,193.6,213.8z"/>
<path class="st1" d="M194.4,213.1c0.1-0.4,0.3-0.6,0.8-0.6C194.9,212.7,194.6,212.9,194.4,213.1z"/>
<path class="st1" d="M205.7,203.1c0.1-0.4,0.3-0.7,0.8-0.8C206.4,202.7,206.1,203,205.7,203.1z"/>
<path class="st1" d="M36.2,202.5c0.4,0.1,0.6,0.3,0.6,0.6C36.6,202.9,36.4,202.7,36.2,202.5z"/>
<path class="st1" d="M203.6,205.2c0.1-0.4,0.4-0.7,0.8-0.8C204.2,204.9,204,205.1,203.6,205.2z"/>
<path class="st1" d="M38.4,204.6c0.4,0,0.6,0.3,0.7,0.6C38.8,205.1,38.6,204.9,38.4,204.6z"/>
<path class="st1" d="M202.8,205.9c0.1-0.4,0.4-0.7,0.8-0.7C203.5,205.6,203.2,205.8,202.8,205.9z"/>
<path class="st1" d="M39.1,205.3c0.4,0,0.6,0.3,0.7,0.7C39.5,205.8,39.3,205.6,39.1,205.3z"/>
<path class="st1" d="M205,203.8c0.1-0.4,0.3-0.7,0.8-0.8C205.7,203.5,205.4,203.7,205,203.8z"/>
<path class="st1" d="M36.9,203.2c0.4,0,0.6,0.3,0.6,0.6C37.3,203.7,37.1,203.4,36.9,203.2z"/>
<path class="st1" d="M204.3,204.5c0.1-0.4,0.3-0.7,0.8-0.8C204.9,204.2,204.7,204.4,204.3,204.5z"/>
<path class="st1" d="M37.6,203.9c0.4,0,0.6,0.3,0.6,0.6C38.1,204.4,37.8,204.2,37.6,203.9z"/>
<path class="st1" d="M58.3,220.2c0.4,0,0.7,0.2,0.9,0.6C58.8,220.8,58.5,220.6,58.3,220.2z"/>
<path class="st1" d="M184.3,220.2c0.1-0.4,0.4-0.6,0.8-0.6C184.9,219.8,184.6,220,184.3,220.2z"/>
<path class="st1" d="M63.3,223.2c0.4,0,0.7,0.1,0.8,0.6C63.8,223.7,63.5,223.5,63.3,223.2z"/>
<path class="st1" d="M180.8,222.3c0.1-0.4,0.4-0.6,0.8-0.6C181.4,222.1,181.1,222.3,180.8,222.3z"/>
<path class="st1" d="M34.8,37c0.9-2.4,2.5-4.1,5-4.9C38.3,33.9,36.6,35.6,34.8,37z"/>
<path class="st1" d="M238,94.9c1,0.8,0.6,1.9,0.6,2.9C237.9,96.9,237.9,95.9,238,94.9z"/>
<path class="st1" d="M229.9,69.9c1,0.4,0.8,1.3,0.9,2.1C230.1,71.5,229.9,70.7,229.9,69.9z"/>
<path class="st1" d="M81.9,6.5c0.5-0.9,1.4-0.8,2.2-0.7C83.5,6.4,82.7,6.6,81.9,6.5z"/>
<path class="st1" d="M80.4,7.1c0.3-0.5,0.9-0.6,1.5-0.6C81.5,7,81,7.2,80.4,7.1z"/>
<path class="st1" d="M151.5,3.7c0.6-0.1,1.1,0,1.5,0.5C152.5,4.3,151.9,4.3,151.5,3.7z"/>
<path class="st1" d="M84.7,5.7c0.4-0.5,0.9-0.6,1.5-0.5C85.8,5.6,85.3,5.7,84.7,5.7z"/>
<path class="st1" d="M86.8,5c0.4-0.6,0.9-0.6,1.5-0.5C88,5,87.4,5,86.8,5z"/>
<path class="st1" d="M170.9,10.7c0.6,0,1.1,0.1,1.4,0.7C171.7,11.5,171.3,11.2,170.9,10.7z"/>
<path class="st1" d="M12.1,70.9c-0.1-0.7,0-1.4,0.8-1.7C12.8,69.9,12.7,70.5,12.1,70.9z"/>
<path class="st1" d="M230.8,72c0.6,0.3,0.7,0.9,0.6,1.5C230.9,73.2,230.8,72.6,230.8,72z"/>
<path class="st1" d="M11.3,72.8c0-0.6,0.1-1.1,0.7-1.4C12,71.9,11.8,72.4,11.3,72.8z"/>
<path class="st1" d="M7.1,84.3c-0.1-0.6,0-1.2,0.5-1.5C7.7,83.3,7.6,83.9,7.1,84.3z"/>
<path class="st1" d="M7.8,82.2c-0.1-0.6,0-1.2,0.6-1.6C8.4,81.2,8.3,81.8,7.8,82.2z"/>
<path class="st1" d="M232.2,75.6c0.6,0.3,0.6,0.9,0.6,1.5C232.3,76.7,232.2,76.2,232.2,75.6z"/>
<path class="st1" d="M231.4,73.5c0.7,0.4,0.7,1,0.7,1.7C231.5,74.7,231.4,74.1,231.4,73.5z"/>
<path class="st1" d="M8.5,80.1c-0.1-0.6,0-1.2,0.6-1.6C9.2,79.1,9,79.7,8.5,80.1z"/>
<path class="st1" d="M216.3,47.2c0.7,0.2,0.9,0.7,0.9,1.3C216.7,48.2,216.4,47.8,216.3,47.2z"/>
<path class="st1" d="M26.2,47.1c0-0.6,0.2-1.2,0.9-1.3C27.1,46.4,26.8,46.8,26.2,47.1z"/>
<path class="st1" d="M185.2,18.6c0.6,0,1.1,0.2,1.3,0.8C186,19.3,185.5,19.1,185.2,18.6z"/>
<path class="st1" d="M22.7,52c0-0.6,0.2-1.1,0.9-1.3C23.5,51.3,23.2,51.7,22.7,52z"/>
<path class="st1" d="M189.5,21.4c0.6,0,1.1,0.2,1.3,0.9C190.2,22.2,189.8,21.9,189.5,21.4z"/>
<path class="st1" d="M52.7,21.5c0.2-0.6,0.7-0.8,1.3-0.8C53.7,21.2,53.2,21.5,52.7,21.5z"/>
<path class="st1" d="M54.8,20.1c0.2-0.6,0.7-0.8,1.3-0.8C55.8,19.8,55.4,20.1,54.8,20.1z"/>
<path class="st1" d="M44.2,28.1c0.1-0.7,0.6-0.9,1.2-1C45.2,27.7,44.8,28,44.2,28.1z"/>
<path class="st1" d="M195.2,25.7c0.6,0.1,1.1,0.2,1.2,0.9C195.9,26.5,195.5,26.2,195.2,25.7z"/>
<path class="st1" d="M47.7,25.2c0.1-0.7,0.7-0.9,1.3-0.9C48.8,24.8,48.3,25.1,47.7,25.2z"/>
<path class="st1" d="M224.3,59.2c0.6,0.3,0.7,0.8,0.8,1.3C224.6,60.2,224.3,59.8,224.3,59.2z"/>
<path class="st1" d="M183,17.2c0.6,0,1.1,0.2,1.4,0.8C183.8,17.9,183.3,17.7,183,17.2z"/>
<path class="st1" d="M21.2,54.2c0-0.6,0.2-1.1,0.8-1.3C22,53.4,21.8,53.9,21.2,54.2z"/>
<path class="st1" d="M176.7,13.6c0.6,0,1.1,0.2,1.4,0.7C177.4,14.3,177,14.1,176.7,13.6z"/>
<path class="st1" d="M73.3,10c0.3-0.5,0.8-0.6,1.4-0.6C74.3,9.8,73.9,10,73.3,10z"/>
<path class="st1" d="M71.2,10.9c0.3-0.8,1-0.8,1.6-0.7C72.4,10.7,71.8,10.8,71.2,10.9z"/>
<path class="st1" d="M182,16.5c0.4,0,0.8,0.2,1,0.6C182.6,17.1,182.2,16.9,182,16.5z"/>
<path class="st1" d="M61.9,15.7c0.2-0.4,0.6-0.6,1-0.6C62.7,15.5,62.3,15.7,61.9,15.7z"/>
<path class="st1" d="M180.8,15.8c0.3,0.2,0.5,0.4,0.8,0.5C181.2,16.4,180.9,16.2,180.8,15.8z"/>
<path class="st1" d="M63.3,14.9c0.3-0.2,0.5-0.4,0.8-0.5C64,14.8,63.7,14.9,63.3,14.9z"/>
<path class="st1" d="M27.1,45.9c0-0.4,0.3-0.7,0.7-0.8C27.7,45.4,27.5,45.7,27.1,45.9z"/>
<path class="st1" d="M27.7,45.1c0.1-0.4,0.3-0.7,0.7-0.8C28.4,44.7,28.1,45,27.7,45.1z"/>
<path class="st1" d="M215.7,46.4c0.4,0.1,0.6,0.4,0.7,0.8C216,47.1,215.8,46.8,215.7,46.4z"/>
<path class="st1" d="M215.1,45.7c0.2,0.3,0.4,0.5,0.6,0.8C215.4,46.3,215.2,46.1,215.1,45.7z"/>
<path class="st1" d="M211.6,41.4c0.2,0.2,0.4,0.5,0.6,0.7C211.8,42,211.6,41.8,211.6,41.4z"/>
<path class="st1" d="M56.2,19.2c0.3-0.2,0.5-0.4,0.8-0.6C56.8,19,56.6,19.2,56.2,19.2z"/>
<path class="st1" d="M28.4,44.3c0.2-0.3,0.4-0.5,0.6-0.8C29,43.9,28.8,44.2,28.4,44.3z"/>
<path class="st1" d="M212.2,42.1c0.2,0.3,0.5,0.5,0.7,0.8C212.5,42.8,212.3,42.5,212.2,42.1z"/>
<path class="st1" d="M24.9,48.7c0-0.4,0.3-0.7,0.7-0.9C25.6,48.3,25.4,48.6,24.9,48.7z"/>
<path class="st1" d="M25.6,47.9c0.2-0.3,0.4-0.5,0.6-0.8C26.2,47.5,26,47.8,25.6,47.9z"/>
<path class="st1" d="M217.9,49.3c0.4,0.1,0.6,0.4,0.7,0.9C218.1,50,217.9,49.7,217.9,49.3z"/>
<path class="st1" d="M217.3,48.5c0.2,0.3,0.4,0.5,0.6,0.8C217.5,49.2,217.3,48.9,217.3,48.5z"/>
<path class="st1" d="M197.2,27.2c0.4,0.1,0.7,0.3,0.8,0.7C197.5,27.8,197.3,27.6,197.2,27.2z"/>
<path class="st1" d="M196.4,26.6c0.3,0,0.6-0.1,0.9-0.1c0,0.3,0,0.5-0.1,0.8C196.8,27.2,196.5,27,196.4,26.6z"/>
<path class="st1" d="M45.5,27.1c0.2-0.2,0.5-0.4,0.7-0.6C46.1,26.8,45.9,27.1,45.5,27.1z"/>
<path class="st1" d="M54,20.7c0.3-0.2,0.5-0.4,0.8-0.6C54.7,20.4,54.4,20.6,54,20.7z"/>
<path class="st1" d="M187.7,20.1c0.5,0,0.8,0.2,1,0.7C188.2,20.8,187.9,20.5,187.7,20.1z"/>
<path class="st1" d="M46.2,26.4c0.3-0.2,0.5-0.5,0.8-0.7C46.9,26.2,46.6,26.4,46.2,26.4z"/>
<path class="st1" d="M41.2,30.7c0.3-0.2,0.5-0.5,0.8-0.7C41.9,30.4,41.6,30.7,41.2,30.7z"/>
<path class="st1" d="M198.7,28.6c0.2,0.2,0.5,0.4,0.7,0.6C199,29.1,198.8,28.9,198.7,28.6z"/>
<path class="st1" d="M197.9,27.9c0.2,0.2,0.5,0.4,0.7,0.7C198.3,28.5,198,28.3,197.9,27.9z"/>
<path class="st1" d="M49.8,23.6c0.1-0.4,0.4-0.6,0.8-0.7C50.5,23.4,50.2,23.6,49.8,23.6z"/>
<path class="st1" d="M188.6,20.8c0.3,0.2,0.5,0.4,0.8,0.6C189,21.4,188.8,21.2,188.6,20.8z"/>
<path class="st1" d="M194.4,25c0.2,0.2,0.5,0.4,0.7,0.6C194.7,25.6,194.5,25.4,194.4,25z"/>
<path class="st1" d="M47,25.8c0.1-0.4,0.4-0.7,0.8-0.7C47.7,25.5,47.4,25.8,47,25.8z"/>
<path class="st1" d="M193.6,24.3c0.3,0.2,0.5,0.4,0.8,0.7C194,25,193.7,24.8,193.6,24.3z"/>
<path class="st1" d="M49,24.2c0.3-0.2,0.5-0.4,0.8-0.6C49.7,24,49.5,24.2,49,24.2z"/>
<path class="st1" d="M34.1,37.8c0.2-0.2,0.4-0.4,0.6-0.7C34.7,37.5,34.5,37.7,34.1,37.8z"/>
<path class="st1" d="M32,40c0.2-0.3,0.5-0.5,0.7-0.8C32.6,39.7,32.4,39.9,32,40z"/>
<path class="st1" d="M32.7,39.3c0.2-0.2,0.5-0.5,0.7-0.7C33.3,38.9,33.1,39.2,32.7,39.3z"/>
<path class="st1" d="M33.4,38.5c0.2-0.2,0.4-0.5,0.7-0.7C34,38.2,33.8,38.4,33.4,38.5z"/>
<path class="st1" d="M186.5,19.3c0.3,0.2,0.5,0.4,0.8,0.6C186.9,19.9,186.6,19.7,186.5,19.3z"/>
<path class="st1" d="M39.8,32.1c0.2-0.2,0.5-0.4,0.7-0.7C40.4,31.8,40.2,32,39.8,32.1z"/>
<path class="st1" d="M40.5,31.4c0.2-0.2,0.5-0.5,0.7-0.7C41.1,31.1,40.9,31.3,40.5,31.4z"/>
<path class="st1" d="M184.3,17.9c0.3,0.2,0.5,0.4,0.8,0.6C184.7,18.5,184.5,18.3,184.3,17.9z"/>
<path class="st1" d="M20.6,55c0.2-0.3,0.4-0.6,0.6-0.8C21.2,54.6,21,54.9,20.6,55z"/>
<path class="st1" d="M16.4,62.2c0-0.4,0.2-0.7,0.6-0.8C16.9,61.8,16.8,62.1,16.4,62.2z"/>
<path class="st1" d="M225.1,60.6c0.2,0.3,0.4,0.6,0.6,0.9C225.3,61.3,225.1,61,225.1,60.6z"/>
<path class="st1" d="M17.1,61c0-0.5,0.2-0.8,0.6-1.1C17.7,60.4,17.5,60.7,17.1,61z"/>
<path class="st1" d="M22,52.9c0.2-0.3,0.4-0.5,0.6-0.8C22.6,52.5,22.4,52.8,22,52.9z"/>
<circle class="st2" cx="119.5" cy="118.9" r="118.9"/>
<path class="st1" d="M172.7,11.6c0.4,0,0.8,0.2,1,0.6C173.3,12.1,172.9,12,172.7,11.6z"/>
<path class="st1" d="M174.2,12.3c0.4,0,0.8,0.2,1,0.5C174.7,12.8,174.4,12.7,174.2,12.3z"/>
<path class="st1" d="M175.6,13c0.4,0,0.8,0.2,1,0.6C176.1,13.6,175.8,13.4,175.6,13z"/>
<g>
	<path class="st3" d="M112.4,105.4c-1.8-1.2-3.2-0.6-3.6,1.5c-0.4,2.3,0.4,4.2,1.9,5.8c2.2,2.3,4.9,3.8,8.2,4.8
		c-0.1-2.6-0.9-4.6-1.9-6.4C115.9,108.9,114.5,106.8,112.4,105.4z"/>
	<path class="st3" d="M142.5,103c-1-1.3-2.5-1.2-3.9-0.6c-0.8,0.3-1.5,0.7-2.1,1.3c-3.4,3.2-5.2,7.3-6.5,11.8
		c4.5-2.5,8.5-5.4,11.7-9.4C142.3,105.2,143.4,104.2,142.5,103z"/>
</g>
<g>
	
		<image style="overflow:visible;opacity:0.75;" width="109" height="132" xlink:href="BA106BCE030A5D27.png"  transform="matrix(1 0 0 1 63 64.1)">
	</image>
	<g>
		<g>
			<path class="st0" d="M95.9,164.9c-0.2,0-0.4,0-0.5,0C95.5,164.9,95.7,164.9,95.9,164.9z"/>
			<path class="st0" d="M102.5,148.3c1.9,0,3.9,0,5.9,0c0,0,0.1,0,0.1,0C106.5,148.3,104.5,148.2,102.5,148.3z"/>
			<path class="st0" d="M79.1,106.9c0.2-1.2,0.8-1.9,1.5-2c-1.2-0.3-2.1,0.4-2.4,2c-0.4,2.3,0.4,4.2,1.9,5.8
				c2.2,2.3,4.9,3.8,8.2,4.8c0-0.1,0-0.2,0-0.3c-2.9-1-5.3-2.4-7.3-4.5C79.5,111.1,78.7,109.2,79.1,106.9z"/>
			<path class="st0" d="M160.8,78c-3.3-4.8-7.6-8.5-12.6-11.3c-15.2-8.5-31.3-9.8-47.9-5.5c-9.6,2.5-18.1,7-24.6,14.8
				c-4.6,5.5-6.9,11.9-6.3,19.1c0.4,5.2,2.4,9.8,5.5,14c4.6,6.2,9,12.5,12.4,19.5c2.3,4.6,4.2,9.3,4.4,14.5c0.2,4.3,1.4,8.3,6,9.9
				c-1.7,2.6-1.7,2.6-0.8,5.7c0.1,0.5,0.3,0.9,0,1.3c-1.7,2.6,0.9,5.6-0.7,8.3c-0.4,0.7,0.7,1.9,1.7,2.5c1,0.6,2.2,1,3.4,0.9
				c1.3-0.1,2.1,0.4,3.1,1.3c6.3,5.6,18.1,6.1,24.9,1.1c1.8-1.4,3.5-2.4,5.9-2.6c3.2-0.3,4.1-2.3,3-5.6c-0.2-0.6-0.4-1,0-1.6
				c1-1.4,1-2.9-0.1-4.3c-0.3-0.4-0.3-0.9,0-1.3c1.5-2,0.7-3.7-1.1-5.6c4.6-1.6,5.9-5.1,6.2-9.3c0.2-3.6,0.9-7,2.3-10.4
				c1.4-3.3,2.9-6.5,4.7-9.6c3.2-5.7,7.3-10.8,10.9-16.3C167.4,98.3,167.2,87.4,160.8,78z M124,165.9c-6,0-12.1,0-18.6,0
				c-0.3,0-0.6,0-0.9,0c1.5-1,2.9-1.1,4.2-1.1c0.9,0,1.8,0.1,2.6,0.1c1.2-0.1,2.4-0.1,3.6-0.1c1.2,0,2.5,0,3.7,0.1
				c0.2,0,0.4,0,0.7,0c0.2,0,0.4,0,0.5,0c1.7,0,3.5-0.1,5.1,1C124.6,165.9,124.3,165.9,124,165.9z M130.3,159.6h-24.7h-0.9
				c-0.2-1,0.5-1.1,1-1.1c0.3,0,0.6,0,0.9,0c7.5,0,15,0,22.5,0c0.3,0,0.6,0,0.9,0c0.6,0,1.1,0.1,1.2,1.1H130.3z M143,125.5
				c-3.5,5.7-5.3,12.1-5.7,18.9c-0.2,3.4-0.8,3.8-4.1,3.9c-0.3,0-0.5,0-0.8,0c0,0-0.1,0-0.1,0c-2,0-3.9,0-5.9,0c-0.7,0-1.4,0-2.1,0
				c-0.2,0-0.5,0-0.7,0c-0.1,0-0.2,0-0.2,0c-1.8,0.1-2.6-0.6-2.5-2.4c0.1-2.2,0-4.5,0-6.8c-0.1-4.5,0.1-9-0.6-13.5
				c-0.3-1.7,0.3-2.6,1.9-3.2c5.5-2.1,10.2-5.4,14.6-9.4c2-1.9,3.9-3.9,5.1-6.3c2-4,0.9-7.3-3.2-9c-1.6-0.7-3.2-1.1-4.8-1.1
				c-2.8,0.1-5.4,1.2-7.9,3.3c-2.5,2.1-4.2,4.8-5.7,7.6c-0.6,1-1.1,2.1-1.7,3.4c-0.2-0.3-0.3-0.6-0.5-0.9c-0.1,0.3-0.3,0.6-0.4,0.9
				c-1.1-2.2-2.1-4.2-3.5-6c-2.1-2.7-4.6-4.8-8-5.5c-0.6-0.1-1.2-0.2-1.7-0.2c-5.4,0.3-9.3,5.2-7.8,11c0.9,3.5,3.1,6.1,6,8.1
				c3,2.2,6.4,3.6,9.9,4.8c1.5,0.5,2.1,1.2,2.2,2.7c0.5,6.6,0.7,13.3,0.7,19.9c0,2.4-0.1,2.5-2.6,2.5c-0.3,0-0.6,0-0.9,0
				c-2.7,0-5.3,0-8,0c-0.3,0-0.6,0-0.9,0c-3.3,0-3.9-0.5-4.1-3.9c-0.4-7.7-3.3-14.5-6.9-21.1c-3.2-5.7-6.9-11.1-10.7-16.4
				c-7.6-10.4-6.7-21.4,2.6-30.4c6.2-6.1,13.8-9.4,22.3-11.1c4.3-0.9,8.6-1.3,12.9-1.2c7.3,0,14.5,1.4,21.5,4.4
				c5.1,2.1,8.8,5,13.3,9.3C159.5,91.3,164.8,89.6,143,125.5z M123.3,115.5c1.3-4.5,3.1-8.6,6.5-11.8c0.6-0.6,1.3-1,2.1-1.3
				c0.8-0.3,1.5-0.5,2.3-0.4c1-0.1,1.9,0.1,2.5,1c0.9,1.2-0.2,2.2-0.8,3.1c-3.2,4-7.2,6.9-11.7,9.4c0.1-0.2,0.1-0.4,0.2-0.6
				C124,115.1,123.7,115.3,123.3,115.5z M112.2,117.5c-3.3-1-6-2.5-8.2-4.8c-1.5-1.6-2.3-3.5-1.9-5.8c0.3-1.6,1.2-2.3,2.4-2
				c0.6-0.1,1.3,0,2.1,0.5c2.1,1.4,3.5,3.5,4.6,5.7c1,1.8,1.8,3.8,1.9,6.4c-0.3-0.1-0.6-0.2-0.9-0.3
				C112.2,117.3,112.2,117.4,112.2,117.5z"/>
			<path class="st2" d="M95.3,164.9c-0.2,0-0.5,0-0.7,0c-1.2-0.1-2.4-0.1-3.7-0.1c0.9,0,1.8,0,2.7,0.1
				C94.3,164.9,94.8,164.9,95.3,164.9z"/>
			<path class="st2" d="M106.1,158.5c-0.3,0-0.6,0-0.9,0c0.6,0,1.1,0.1,1.2,1.1h0.9C107.2,158.6,106.7,158.5,106.1,158.5z"/>
			<path class="st2" d="M99.7,148.3c0.2,0,0.4,0,0.7,0c0.7,0,1.4,0,2.1,0C101.6,148.3,100.7,148.3,99.7,148.3z"/>
		</g>
	</g>
</g>
<path class="st4" d="M-0.1,121.3c0-0.2,0-0.5,0-0.7c0.1-0.2,0-0.4,0.1-0.5c0.5,0,0.5,0.4,0.5,0.7C0.5,121.2,0.2,121.3-0.1,121.3z"/>
<path class="st4" d="M-0.5,105.7c0-0.2,0-0.5,0-0.7c0.3,0,0.6,0.1,0.7,0.5c0,0.4,0,0.7-0.5,0.7C-0.5,106-0.4,105.8-0.5,105.7z"/>
<path class="st4" d="M-0.8,129.2c0-0.2,0.1-0.5,0.1-0.7c0.1-0.2,0-0.4,0.2-0.5c0.3,0.1,0.6,0.3,0.5,0.7
	C-0.1,129.1-0.3,129.3-0.8,129.2z"/>
<path class="st1" d="M0,114.9c-0.2-1.2-0.1-2.4-0.1-3.6C0.2,112.5,0,113.7,0,114.9z"/>
<path class="st4" d="M-0.3,124.7c0-0.2,0-0.5,0-0.7c0.1-0.2,0-0.4,0.2-0.5c0.3,0.2,0.6,0.3,0.5,0.7C0.3,124.5,0.1,124.7-0.3,124.7z"
	/>
</svg>
